<?xml version="1.0" encoding="UTF-8"?>
<!--Generator: Apple Native CoreSVG 123-->
<!DOCTYPE svg
PUBLIC "-//W3C//DTD SVG 1.1//EN"
       "http://www.w3.org/Graphics/SVG/1.1/DTD/svg11.dtd">
<svg version="1.1" xmlns="http://www.w3.org/2000/svg" xmlns:xlink="http://www.w3.org/1999/xlink" width="3300" height="2200">
 <!--glyph: "uni100340.medium", point size: 100.000000, font version: "Version 15.0d7e11", template writer version: "5"-->
 <g id="Notes">
  <rect height="2200" id="artboard" style="fill:white;opacity:1" width="3300" x="0" y="0"/>
  <line id="" style="fill:none;stroke:black;opacity:1;stroke-width:0.5;" x1="263" x2="3036" y1="292" y2="292"/>
  <text style="stroke:none;fill:black;font-family:-apple-system,&quot;SF Pro Display&quot;,&quot;SF Pro Text&quot;,Helvetica,sans-serif;font-weight:bold;" transform="matrix(1 0 0 1 263 322)">Weight/Scale Variations</text>
  <text style="stroke:none;fill:black;font-family:-apple-system,&quot;SF Pro Display&quot;,&quot;SF Pro Text&quot;,Helvetica,sans-serif;text-anchor:middle;" transform="matrix(1 0 0 1 559.711 322)">Ultralight</text>
  <text style="stroke:none;fill:black;font-family:-apple-system,&quot;SF Pro Display&quot;,&quot;SF Pro Text&quot;,Helvetica,sans-serif;text-anchor:middle;" transform="matrix(1 0 0 1 856.422 322)">Thin</text>
  <text style="stroke:none;fill:black;font-family:-apple-system,&quot;SF Pro Display&quot;,&quot;SF Pro Text&quot;,Helvetica,sans-serif;text-anchor:middle;" transform="matrix(1 0 0 1 1153.13 322)">Light</text>
  <text style="stroke:none;fill:black;font-family:-apple-system,&quot;SF Pro Display&quot;,&quot;SF Pro Text&quot;,Helvetica,sans-serif;text-anchor:middle;" transform="matrix(1 0 0 1 1449.84 322)">Regular</text>
  <text style="stroke:none;fill:black;font-family:-apple-system,&quot;SF Pro Display&quot;,&quot;SF Pro Text&quot;,Helvetica,sans-serif;text-anchor:middle;" transform="matrix(1 0 0 1 1746.56 322)">Medium</text>
  <text style="stroke:none;fill:black;font-family:-apple-system,&quot;SF Pro Display&quot;,&quot;SF Pro Text&quot;,Helvetica,sans-serif;text-anchor:middle;" transform="matrix(1 0 0 1 2043.27 322)">Semibold</text>
  <text style="stroke:none;fill:black;font-family:-apple-system,&quot;SF Pro Display&quot;,&quot;SF Pro Text&quot;,Helvetica,sans-serif;text-anchor:middle;" transform="matrix(1 0 0 1 2339.98 322)">Bold</text>
  <text style="stroke:none;fill:black;font-family:-apple-system,&quot;SF Pro Display&quot;,&quot;SF Pro Text&quot;,Helvetica,sans-serif;text-anchor:middle;" transform="matrix(1 0 0 1 2636.69 322)">Heavy</text>
  <text style="stroke:none;fill:black;font-family:-apple-system,&quot;SF Pro Display&quot;,&quot;SF Pro Text&quot;,Helvetica,sans-serif;text-anchor:middle;" transform="matrix(1 0 0 1 2933.4 322)">Black</text>
  <line id="" style="fill:none;stroke:black;opacity:1;stroke-width:0.5;" x1="263" x2="3036" y1="1903" y2="1903"/>
  <g id="" transform="matrix(1 0 0 1 263 1933)">
   <path d="M 9.24805 0.830078 C 13.5547 0.830078 17.1387 -2.74414 17.1387 -7.05078 C 17.1387 -11.3574 13.5449 -14.9316 9.23828 -14.9316 C 4.94141 -14.9316 1.36719 -11.3574 1.36719 -7.05078 C 1.36719 -2.74414 4.95117 0.830078 9.24805 0.830078 Z M 9.24805 -0.654297 C 5.70312 -0.654297 2.87109 -3.49609 2.87109 -7.05078 C 2.87109 -10.6055 5.69336 -13.4473 9.23828 -13.4473 C 12.793 -13.4473 15.6348 -10.6055 15.6445 -7.05078 C 15.6543 -3.49609 12.8027 -0.654297 9.24805 -0.654297 Z M 9.22852 -3.42773 C 9.69727 -3.42773 9.9707 -3.74023 9.9707 -4.25781 L 9.9707 -6.31836 L 12.1973 -6.31836 C 12.6953 -6.31836 13.0371 -6.57227 13.0371 -7.04102 C 13.0371 -7.51953 12.7148 -7.7832 12.1973 -7.7832 L 9.9707 -7.7832 L 9.9707 -10.0098 C 9.9707 -10.5273 9.69727 -10.8496 9.22852 -10.8496 C 8.75977 -10.8496 8.50586 -10.5078 8.50586 -10.0098 L 8.50586 -7.7832 L 6.29883 -7.7832 C 5.78125 -7.7832 5.44922 -7.51953 5.44922 -7.04102 C 5.44922 -6.57227 5.80078 -6.31836 6.29883 -6.31836 L 8.50586 -6.31836 L 8.50586 -4.25781 C 8.50586 -3.75977 8.75977 -3.42773 9.22852 -3.42773 Z"/>
  </g>
  <g id="" transform="matrix(1 0 0 1 281.506 1933)">
   <path d="M 11.709 2.91016 C 17.1582 2.91016 21.6699 -1.60156 21.6699 -7.05078 C 21.6699 -12.4902 17.1484 -17.0117 11.6992 -17.0117 C 6.25977 -17.0117 1.74805 -12.4902 1.74805 -7.05078 C 1.74805 -1.60156 6.26953 2.91016 11.709 2.91016 Z M 11.709 1.25 C 7.09961 1.25 3.41797 -2.44141 3.41797 -7.05078 C 3.41797 -11.6504 7.08984 -15.3516 11.6992 -15.3516 C 16.3086 -15.3516 20 -11.6504 20.0098 -7.05078 C 20.0195 -2.44141 16.3184 1.25 11.709 1.25 Z M 11.6895 -2.41211 C 12.207 -2.41211 12.5195 -2.77344 12.5195 -3.33984 L 12.5195 -6.23047 L 15.5762 -6.23047 C 16.123 -6.23047 16.5039 -6.51367 16.5039 -7.03125 C 16.5039 -7.55859 16.1426 -7.86133 15.5762 -7.86133 L 12.5195 -7.86133 L 12.5195 -10.9277 C 12.5195 -11.5039 12.207 -11.8555 11.6895 -11.8555 C 11.1719 -11.8555 10.8789 -11.4844 10.8789 -10.9277 L 10.8789 -7.86133 L 7.83203 -7.86133 C 7.26562 -7.86133 6.89453 -7.55859 6.89453 -7.03125 C 6.89453 -6.51367 7.28516 -6.23047 7.83203 -6.23047 L 10.8789 -6.23047 L 10.8789 -3.33984 C 10.8789 -2.79297 11.1719 -2.41211 11.6895 -2.41211 Z"/>
  </g>
  <g id="" transform="matrix(1 0 0 1 304.924 1933)">
   <path d="M 14.9707 5.67383 C 21.9336 5.67383 27.6953 -0.078125 27.6953 -7.04102 C 27.6953 -14.0039 21.9238 -19.7559 14.9609 -19.7559 C 8.00781 -19.7559 2.25586 -14.0039 2.25586 -7.04102 C 2.25586 -0.078125 8.01758 5.67383 14.9707 5.67383 Z M 14.9707 3.85742 C 8.93555 3.85742 4.08203 -1.00586 4.08203 -7.04102 C 4.08203 -13.0762 8.92578 -17.9395 14.9609 -17.9395 C 21.0059 -17.9395 25.8594 -13.0762 25.8691 -7.04102 C 25.8789 -1.00586 21.0156 3.85742 14.9707 3.85742 Z M 14.9512 -1.06445 C 15.5176 -1.06445 15.8691 -1.45508 15.8691 -2.06055 L 15.8691 -6.13281 L 20.1074 -6.13281 C 20.6934 -6.13281 21.1133 -6.46484 21.1133 -7.02148 C 21.1133 -7.59766 20.7227 -7.93945 20.1074 -7.93945 L 15.8691 -7.93945 L 15.8691 -12.1875 C 15.8691 -12.8027 15.5176 -13.1934 14.9512 -13.1934 C 14.3848 -13.1934 14.0625 -12.7832 14.0625 -12.1875 L 14.0625 -7.93945 L 9.83398 -7.93945 C 9.21875 -7.93945 8.80859 -7.59766 8.80859 -7.02148 C 8.80859 -6.46484 9.23828 -6.13281 9.83398 -6.13281 L 14.0625 -6.13281 L 14.0625 -2.06055 C 14.0625 -1.47461 14.3848 -1.06445 14.9512 -1.06445 Z"/>
  </g>
  <text style="stroke:none;fill:black;font-family:-apple-system,&quot;SF Pro Display&quot;,&quot;SF Pro Text&quot;,Helvetica,sans-serif;font-weight:bold;" transform="matrix(1 0 0 1 263 1953)">Design Variations</text>
  <text style="stroke:none;fill:black;font-family:-apple-system,&quot;SF Pro Display&quot;,&quot;SF Pro Text&quot;,Helvetica,sans-serif;" transform="matrix(1 0 0 1 263 1971)">Symbols are supported in up to nine weights and three scales.</text>
  <text style="stroke:none;fill:black;font-family:-apple-system,&quot;SF Pro Display&quot;,&quot;SF Pro Text&quot;,Helvetica,sans-serif;" transform="matrix(1 0 0 1 263 1989)">For optimal layout with text and other symbols, vertically align</text>
  <text style="stroke:none;fill:black;font-family:-apple-system,&quot;SF Pro Display&quot;,&quot;SF Pro Text&quot;,Helvetica,sans-serif;" transform="matrix(1 0 0 1 263 2007)">symbols with the adjacent text.</text>
  <rect height="14" id="" style="fill:#00AEEF;stroke:none;opacity:0.4;" width="3" x="776" y="1919"/>
  <g id="" transform="matrix(1 0 0 1 779 1933)">
   <path d="M 10.5273 0 L 12.373 0 L 7.17773 -14.0918 L 5.43945 -14.0918 L 0.244141 0 L 2.08984 0 L 3.50586 -4.0332 L 9.11133 -4.0332 Z M 6.2793 -11.9531 L 6.33789 -11.9531 L 8.59375 -5.52734 L 4.02344 -5.52734 Z"/>
  </g>
  <rect height="14" id="" style="fill:#00AEEF;stroke:none;opacity:0.4;" width="3" x="791.617" y="1919"/>
  <text style="stroke:none;fill:black;font-family:-apple-system,&quot;SF Pro Display&quot;,&quot;SF Pro Text&quot;,Helvetica,sans-serif;font-weight:bold;" transform="matrix(1 0 0 1 776 1953)">Margins</text>
  <text style="stroke:none;fill:black;font-family:-apple-system,&quot;SF Pro Display&quot;,&quot;SF Pro Text&quot;,Helvetica,sans-serif;" transform="matrix(1 0 0 1 776 1971)">Leading and trailing margins on the left and right side of each symbol</text>
  <text style="stroke:none;fill:black;font-family:-apple-system,&quot;SF Pro Display&quot;,&quot;SF Pro Text&quot;,Helvetica,sans-serif;" transform="matrix(1 0 0 1 776 1989)">can be adjusted by modifying the width of the blue rectangles.</text>
  <text style="stroke:none;fill:black;font-family:-apple-system,&quot;SF Pro Display&quot;,&quot;SF Pro Text&quot;,Helvetica,sans-serif;" transform="matrix(1 0 0 1 776 2007)">Modifications are automatically applied proportionally to all</text>
  <text style="stroke:none;fill:black;font-family:-apple-system,&quot;SF Pro Display&quot;,&quot;SF Pro Text&quot;,Helvetica,sans-serif;" transform="matrix(1 0 0 1 776 2025)">scales and weights.</text>
  <g id="" transform="matrix(1 0 0 1 1289 1933)">
   <path d="M 2.83203 3.11523 L 4.375 4.6582 C 5.22461 5.48828 6.19141 5.41992 7.06055 4.46289 L 17.2754 -6.66016 C 17.7051 -6.36719 18.0957 -6.37695 18.5645 -6.47461 L 19.6094 -6.68945 L 20.3027 -5.99609 L 20.2539 -5.47852 C 20.1855 -4.95117 20.3516 -4.53125 20.8496 -4.0332 L 21.6602 -3.22266 C 22.168 -2.71484 22.8223 -2.68555 23.3008 -3.16406 L 26.5527 -6.41602 C 27.0312 -6.89453 27.0117 -7.54883 26.5039 -8.05664 L 25.6836 -8.87695 C 25.1855 -9.375 24.7754 -9.55078 24.2383 -9.47266 L 23.7109 -9.41406 L 23.0566 -10.0781 L 23.3398 -11.2207 C 23.4863 -11.7871 23.3398 -12.2559 22.7148 -12.8613 L 20.3027 -15.2539 C 16.7578 -18.7793 12.2266 -18.6719 9.11133 -15.5371 C 8.69141 -15.1074 8.64258 -14.5215 8.91602 -14.0918 C 9.15039 -13.7207 9.62891 -13.4961 10.2734 -13.6621 C 11.7871 -14.043 13.3008 -13.9258 14.7852 -12.9199 L 14.1602 -11.3379 C 13.9258 -10.752 13.9453 -10.2734 14.1797 -9.83398 L 3.01758 0.439453 C 2.08008 1.30859 1.97266 2.25586 2.83203 3.11523 Z M 10.6738 -15.1465 C 13.3398 -17.1387 16.6504 -16.8262 19.0527 -14.4141 L 21.6797 -11.8066 C 21.9141 -11.5723 21.9434 -11.3867 21.8848 -11.0938 L 21.5039 -9.53125 L 23.0762 -7.95898 L 24.043 -8.04688 C 24.3262 -8.07617 24.4141 -8.05664 24.6387 -7.83203 L 25.2637 -7.20703 L 22.5098 -4.46289 L 21.8848 -5.07812 C 21.6602 -5.30273 21.6406 -5.40039 21.6699 -5.68359 L 21.7578 -6.64062 L 20.1953 -8.20312 L 18.5742 -7.89062 C 18.291 -7.83203 18.1445 -7.83203 17.9102 -8.07617 L 15.7324 -10.2539 C 15.5078 -10.4883 15.4785 -10.625 15.6055 -10.9473 L 16.5527 -13.2227 C 14.9512 -14.7559 12.8418 -15.6055 10.8008 -14.9512 C 10.7129 -14.9219 10.6445 -14.9414 10.6152 -14.9805 C 10.5859 -15.0293 10.5859 -15.0781 10.6738 -15.1465 Z M 4.10156 2.41211 C 3.61328 1.91406 3.78906 1.61133 4.12109 1.30859 L 15.0781 -8.80859 L 16.3086 -7.57812 L 6.15234 3.34961 C 5.84961 3.68164 5.46875 3.7793 5.06836 3.37891 Z"/>
  </g>
  <text style="stroke:none;fill:black;font-family:-apple-system,&quot;SF Pro Display&quot;,&quot;SF Pro Text&quot;,Helvetica,sans-serif;font-weight:bold;" transform="matrix(1 0 0 1 1289 1953)">Exporting</text>
  <text style="stroke:none;fill:black;font-family:-apple-system,&quot;SF Pro Display&quot;,&quot;SF Pro Text&quot;,Helvetica,sans-serif;" transform="matrix(1 0 0 1 1289 1971)">Symbols should be outlined when exporting to ensure the</text>
  <text style="stroke:none;fill:black;font-family:-apple-system,&quot;SF Pro Display&quot;,&quot;SF Pro Text&quot;,Helvetica,sans-serif;" transform="matrix(1 0 0 1 1289 1989)">design is preserved when submitting to Xcode.</text>
  <text id="template-version" style="stroke:none;fill:black;font-family:-apple-system,&quot;SF Pro Display&quot;,&quot;SF Pro Text&quot;,Helvetica,sans-serif;text-anchor:end;" transform="matrix(1 0 0 1 3036 1933)">Template v.1.0</text>
  <text style="stroke:none;fill:black;font-family:-apple-system,&quot;SF Pro Display&quot;,&quot;SF Pro Text&quot;,Helvetica,sans-serif;text-anchor:end;" transform="matrix(1 0 0 1 3036 1951)">Generated from phone.arrow.up.right</text>
  <text style="stroke:none;fill:black;font-family:-apple-system,&quot;SF Pro Display&quot;,&quot;SF Pro Text&quot;,Helvetica,sans-serif;text-anchor:end;" transform="matrix(1 0 0 1 3036 1969)">Typeset at 100 points</text>
  <text style="stroke:none;fill:black;font-family:-apple-system,&quot;SF Pro Display&quot;,&quot;SF Pro Text&quot;,Helvetica,sans-serif;" transform="matrix(1 0 0 1 263 726)">Small</text>
  <text style="stroke:none;fill:black;font-family:-apple-system,&quot;SF Pro Display&quot;,&quot;SF Pro Text&quot;,Helvetica,sans-serif;" transform="matrix(1 0 0 1 263 1156)">Medium</text>
  <text style="stroke:none;fill:black;font-family:-apple-system,&quot;SF Pro Display&quot;,&quot;SF Pro Text&quot;,Helvetica,sans-serif;" transform="matrix(1 0 0 1 263 1586)">Large</text>
 </g>
 <g id="Guides">
  <g id="H-reference" style="fill:#27AAE1;stroke:none;" transform="matrix(1 0 0 1 339 696)">
   <path d="M 54.9316 0 L 57.666 0 L 30.5664 -70.459 L 28.0762 -70.459 L 0.976562 0 L 3.66211 0 L 12.9395 -24.4629 L 45.7031 -24.4629 Z M 29.1992 -67.0898 L 29.4434 -67.0898 L 44.8242 -26.709 L 13.8184 -26.709 Z"/>
  </g>
  <line id="Baseline-S" style="fill:none;stroke:#27AAE1;opacity:1;stroke-width:0.577;" x1="263" x2="3036" y1="696" y2="696"/>
  <line id="Capline-S" style="fill:none;stroke:#27AAE1;opacity:1;stroke-width:0.577;" x1="263" x2="3036" y1="625.541" y2="625.541"/>
  <g id="H-reference" style="fill:#27AAE1;stroke:none;" transform="matrix(1 0 0 1 339 1126)">
   <path d="M 54.9316 0 L 57.666 0 L 30.5664 -70.459 L 28.0762 -70.459 L 0.976562 0 L 3.66211 0 L 12.9395 -24.4629 L 45.7031 -24.4629 Z M 29.1992 -67.0898 L 29.4434 -67.0898 L 44.8242 -26.709 L 13.8184 -26.709 Z"/>
  </g>
  <line id="Baseline-M" style="fill:none;stroke:#27AAE1;opacity:1;stroke-width:0.577;" x1="263" x2="3036" y1="1126" y2="1126"/>
  <line id="Capline-M" style="fill:none;stroke:#27AAE1;opacity:1;stroke-width:0.577;" x1="263" x2="3036" y1="1055.54" y2="1055.54"/>
  <g id="H-reference" style="fill:#27AAE1;stroke:none;" transform="matrix(1 0 0 1 339 1556)">
   <path d="M 54.9316 0 L 57.666 0 L 30.5664 -70.459 L 28.0762 -70.459 L 0.976562 0 L 3.66211 0 L 12.9395 -24.4629 L 45.7031 -24.4629 Z M 29.1992 -67.0898 L 29.4434 -67.0898 L 44.8242 -26.709 L 13.8184 -26.709 Z"/>
  </g>
  <line id="Baseline-L" style="fill:none;stroke:#27AAE1;opacity:1;stroke-width:0.577;" x1="263" x2="3036" y1="1556" y2="1556"/>
  <line id="Capline-L" style="fill:none;stroke:#27AAE1;opacity:1;stroke-width:0.577;" x1="263" x2="3036" y1="1485.54" y2="1485.54"/>
  <rect height="119.336" id="left-margin" style="fill:#00AEEF;stroke:none;opacity:0.4;" width="11.2305" x="1390.62" y="1030.79"/>
  <rect height="119.336" id="right-margin" style="fill:#00AEEF;stroke:none;opacity:0.4;" width="11.2305" x="1497.84" y="1030.79"/>
 </g>
 <g id="Symbols">
  <g id="Black-L" transform="matrix(1 0 0 1 2852.35 1556)">
   <path d="M 113.477 31.3477 C 124.805 31.3477 132.959 27.4902 140.82 19.3848 C 141.26 18.8965 141.699 18.457 142.139 17.9199 C 145.508 13.916 147.607 8.93555 147.607 4.73633 C 147.607 -0.634766 145.312 -5.17578 139.453 -9.22852 L 119.287 -23.2422 C 112.451 -28.0273 105.029 -28.0762 99.707 -22.6074 L 95.5078 -18.3594 C 93.1641 -16.0645 90.8691 -15.8691 87.5977 -18.5547 C 84.082 -21.2891 78.9551 -25.9277 75.4395 -29.4434 C 72.4121 -32.4707 68.457 -36.9141 65.9668 -40.1855 C 63.4277 -43.4082 63.4766 -45.752 65.7715 -48.0469 L 70.0195 -52.2461 C 75.4883 -57.5684 75.4883 -65.0879 70.7031 -71.875 L 55.4688 -93.2129 C 51.9531 -98.1934 46.7285 -100.781 41.3086 -100.781 C 36.9141 -100.83 32.4707 -99.1699 28.418 -95.8984 C 27.9297 -95.5078 27.3926 -95.0684 27.0996 -94.7754 C 18.5059 -86.4258 14.502 -78.6621 14.502 -65.4785 C 14.502 -44.9219 24.1211 -22.9492 47.2168 -0.390625 C 70.2148 22.1191 91.2109 31.3477 113.477 31.3477 Z M 95.7031 -41.4551 C 97.8516 -41.4551 99.9023 -42.2852 101.416 -43.7988 L 121.191 -63.4766 L 126.807 -69.873 L 125.684 -59.9121 L 125.684 -52.2461 C 125.684 -47.998 129.053 -44.8242 133.496 -44.7754 C 137.939 -44.7266 141.406 -47.9004 141.406 -52.0996 L 141.406 -84.3262 C 141.406 -91.1621 137.549 -95.0684 130.664 -95.0684 L 97.9492 -95.0684 C 93.7012 -95.0684 90.5273 -91.5527 90.5762 -87.1094 C 90.625 -82.666 93.7988 -79.3457 98.0469 -79.3457 L 106.104 -79.3457 L 116.553 -80.4688 L 109.863 -74.9023 L 90.0879 -55.127 C 88.4277 -53.4668 87.5488 -51.3672 87.5488 -48.9746 C 87.5488 -44.6777 90.9668 -41.4551 95.7031 -41.4551 Z M 113.135 17.7246 C 97.1191 17.8223 78.7598 9.13086 57.8125 -11.3281 C 36.7676 -31.8359 28.418 -50.8789 28.5156 -66.8945 C 28.5645 -73.1445 30.9082 -78.8086 35.1562 -82.4219 C 35.7422 -82.959 36.4258 -83.4473 37.0117 -83.8867 C 38.3301 -84.9609 39.8438 -85.498 41.2598 -85.498 C 43.0176 -85.498 44.6777 -84.668 45.9961 -82.8125 L 56.6895 -67.041 C 58.5938 -64.209 58.3984 -61.0352 55.7129 -58.5449 L 52.1484 -55.127 C 45.9473 -49.3652 46.6309 -43.5059 49.4629 -38.916 C 52.3438 -34.3262 59.1797 -26.5625 66.0156 -19.9219 C 74.1699 -11.9629 82.5684 -4.44336 86.3281 -2.05078 C 90.918 0.830078 96.7773 1.46484 102.539 -4.6875 L 105.957 -8.30078 C 108.496 -10.9863 111.67 -11.084 114.453 -9.27734 L 129.053 0.292969 C 131.055 1.5625 131.738 3.22266 131.738 4.93164 C 131.738 6.34766 131.25 7.86133 130.176 9.27734 C 129.688 9.86328 129.199 10.498 128.711 11.084 C 125.098 15.332 119.385 17.6758 113.135 17.7246 Z"/>
  </g>
  <g id="Heavy-L" transform="matrix(1 0 0 1 2556.98 1556)">
   <path d="M 111.377 29.9316 C 122.461 29.9316 130.42 26.3184 137.939 18.457 C 138.379 18.0176 138.818 17.5293 139.258 17.041 C 142.725 12.9883 144.727 8.20312 144.727 4.10156 C 144.727 -1.02539 142.432 -5.41992 136.719 -9.32617 L 116.992 -23.0469 C 110.498 -27.5391 103.32 -27.6855 97.998 -22.3145 L 93.7012 -17.9688 C 91.6016 -15.8691 89.4531 -15.6738 86.6211 -17.9199 C 83.1543 -20.5078 77.6367 -25.3906 73.7305 -29.2969 C 70.1172 -32.9102 66.0645 -37.4512 63.5742 -40.9668 C 61.377 -43.8477 61.4746 -45.9473 63.5742 -48.0469 L 67.9199 -52.3438 C 73.3398 -57.7148 73.2422 -64.8926 68.7012 -71.3867 L 54.1016 -91.9922 C 50.5859 -96.9727 45.6543 -99.5117 40.4785 -99.5605 C 36.2305 -99.6094 31.8359 -97.9004 27.7344 -94.4824 C 27.2949 -94.0918 26.8066 -93.6523 26.4648 -93.3594 C 18.2129 -85.498 14.502 -77.832 14.502 -65.332 C 14.502 -45.459 24.5117 -23.5352 46.8262 -1.66016 C 69.0918 20.166 90.1367 29.9316 111.377 29.9316 Z M 93.9941 -42.1387 C 95.8984 -42.1387 97.6562 -42.8711 99.0234 -44.2383 L 120.85 -66.0156 L 127.393 -73.3398 L 126.367 -61.2793 L 126.367 -52.8809 C 126.367 -49.1211 129.297 -46.2891 133.203 -46.2402 C 137.109 -46.1914 140.186 -49.0234 140.186 -52.7832 L 140.186 -86.1328 C 140.186 -92.041 136.914 -95.3613 131.006 -95.3613 L 97.168 -95.3613 C 93.4082 -95.3613 90.5762 -92.2363 90.625 -88.3301 C 90.6738 -84.4238 93.5059 -81.4941 97.2656 -81.4941 L 106.055 -81.4941 L 118.457 -82.5684 L 110.889 -76.0254 L 89.0625 -54.1992 C 87.5488 -52.7344 86.8164 -50.8789 86.8164 -48.7793 C 86.8164 -45.0195 89.8438 -42.1387 93.9941 -42.1387 Z M 111.133 17.5781 C 95.1172 17.7246 76.2695 8.20312 56.3965 -11.3281 C 36.4258 -30.9082 27.0508 -50.3906 27.1973 -66.4062 C 27.2461 -72.8516 29.5898 -78.6133 34.0332 -82.4707 C 34.5703 -82.9102 35.1562 -83.3496 35.6934 -83.7891 C 37.207 -85.0098 38.8672 -85.6934 40.4297 -85.6934 C 42.2363 -85.6934 43.8965 -84.8633 45.2148 -82.959 L 56.25 -66.6016 C 58.0566 -63.9648 57.959 -60.9375 55.3711 -58.4961 L 51.3672 -54.6387 C 45.7031 -49.2676 46.2402 -43.6035 49.1211 -39.1602 C 52.0508 -34.5703 58.6914 -27.0508 65.1855 -20.6543 C 72.7051 -13.3301 80.8594 -6.05469 84.8145 -3.4668 C 89.2578 -0.634766 94.9219 -0.0976562 100.244 -5.71289 L 104.102 -9.7168 C 106.592 -12.3535 109.57 -12.3535 112.256 -10.6445 L 127.734 -0.439453 C 129.736 0.830078 130.42 2.49023 130.42 4.24805 C 130.42 5.81055 129.834 7.4707 128.516 9.08203 C 128.076 9.61914 127.686 10.1562 127.197 10.6934 C 123.34 15.1367 117.578 17.5293 111.133 17.5781 Z"/>
  </g>
  <g id="Bold-L" transform="matrix(1 0 0 1 2261.76 1556)">
   <path d="M 108.984 28.3691 C 119.873 28.3691 127.588 25 134.717 17.4316 C 135.156 16.9922 135.596 16.5039 135.986 16.0645 C 139.551 11.9629 141.504 7.42188 141.504 3.36914 C 141.504 -1.46484 139.16 -5.71289 133.691 -9.47266 L 114.453 -22.8027 C 108.35 -27.0508 101.465 -27.3438 96.0938 -21.9238 L 91.6504 -17.4805 C 89.7949 -15.625 87.9395 -15.4297 85.498 -17.2363 C 82.1289 -19.6289 76.123 -24.8535 71.8262 -29.1504 C 67.5293 -33.3984 63.3789 -38.0859 60.8887 -41.8945 C 59.1309 -44.2871 59.2773 -46.1426 61.1328 -48.0469 L 65.5762 -52.4902 C 70.9473 -57.8125 70.7031 -64.7461 66.4551 -70.8008 L 52.5391 -90.625 C 49.0234 -95.6543 44.4336 -98.0957 39.5508 -98.1934 C 35.4492 -98.2422 31.1035 -96.4844 27.0508 -92.9199 C 26.5625 -92.5293 26.0742 -92.1387 25.7324 -91.7969 C 17.9199 -84.4238 14.502 -76.9043 14.502 -65.1367 C 14.502 -45.9961 24.9512 -24.2188 46.3867 -3.07617 C 67.7734 18.0176 88.9648 28.3691 108.984 28.3691 Z M 92.0898 -42.9688 C 93.7012 -42.9688 95.166 -43.5547 96.3867 -44.7266 L 120.459 -68.7988 L 128.076 -77.1973 L 127.1 -62.8418 L 127.1 -53.6133 C 127.1 -50.3906 129.59 -47.998 132.861 -47.9004 C 136.182 -47.8516 138.818 -50.293 138.818 -53.5156 L 138.818 -88.1836 C 138.818 -93.0176 136.182 -95.7031 131.348 -95.7031 L 96.3379 -95.7031 C 93.1152 -95.7031 90.625 -93.0176 90.6738 -89.6973 C 90.7715 -86.377 93.2129 -83.9355 96.3867 -83.9355 L 106.006 -83.9355 L 120.557 -84.9121 L 112.012 -77.2949 L 87.9395 -53.2227 C 86.6211 -51.9043 85.9863 -50.3906 85.9863 -48.584 C 85.9863 -45.4102 88.5742 -42.9688 92.0898 -42.9688 Z M 108.887 17.3828 C 92.8223 17.5781 73.4863 7.08008 54.7852 -11.3281 C 35.9863 -29.8828 25.4883 -49.8047 25.6836 -65.8691 C 25.7324 -72.5098 28.125 -78.3691 32.7637 -82.4707 C 33.252 -82.8613 33.7402 -83.252 34.1797 -83.6426 C 35.9375 -85.1562 37.8418 -85.8887 39.502 -85.8887 C 41.3574 -85.8887 43.0176 -85.1074 44.3359 -83.1543 L 55.8105 -66.1621 C 57.4707 -63.6719 57.4707 -60.8398 54.9805 -58.3984 L 50.4883 -54.0527 C 45.4102 -49.2188 45.8496 -43.75 48.6816 -39.4531 C 51.7578 -34.8633 58.1543 -27.5391 64.2578 -21.5332 C 71.0449 -14.8438 78.9062 -7.91016 83.1055 -5.07812 C 87.3535 -2.24609 92.8223 -1.80664 97.7051 -6.88477 L 102.051 -11.3281 C 104.443 -13.8672 107.275 -13.8184 109.766 -12.1582 L 126.221 -1.26953 C 128.223 0.0488281 128.955 1.66016 128.955 3.51562 C 128.955 5.22461 128.223 7.08008 126.66 8.88672 C 126.27 9.32617 125.928 9.81445 125.537 10.3027 C 121.436 14.9414 115.527 17.2852 108.887 17.3828 Z"/>
  </g>
  <g id="Semibold-L" transform="matrix(1 0 0 1 1966.09 1556)">
   <path d="M 107.373 27.2949 C 118.066 27.2949 125.635 24.0723 132.52 16.748 C 132.91 16.3086 133.35 15.8203 133.74 15.3809 C 137.402 11.2793 139.307 6.88477 139.307 2.88086 C 139.307 -1.75781 136.914 -5.85938 131.592 -9.57031 L 112.695 -22.6562 C 106.836 -26.6602 100.195 -27.0508 94.8242 -21.6797 L 90.2832 -17.1875 C 88.5742 -15.4785 86.8652 -15.2832 84.7656 -16.7969 C 81.4453 -18.9941 75.0977 -24.4629 70.5078 -29.0527 C 65.7227 -33.7402 61.5234 -38.5254 59.0332 -42.4805 C 57.5684 -44.6289 57.7148 -46.3379 59.4238 -47.998 L 63.9648 -52.5391 C 69.2871 -57.9102 68.9453 -64.6484 64.8926 -70.4102 L 51.4648 -89.6973 C 47.9492 -94.7754 43.5547 -97.168 38.916 -97.2168 C 34.9121 -97.2656 30.6152 -95.459 26.5137 -91.8945 C 26.0742 -91.4551 25.6348 -91.0645 25.1953 -90.7227 C 17.7246 -83.7402 14.4531 -76.2695 14.4531 -65.0391 C 14.4531 -46.3867 25.2441 -24.707 46.0938 -4.05273 C 66.8457 16.5039 88.1836 27.2949 107.373 27.2949 Z M 90.7715 -43.5059 C 92.1875 -43.5059 93.5059 -44.043 94.5312 -45.0684 L 120.166 -70.752 L 128.564 -79.834 L 127.637 -63.916 L 127.637 -54.1016 C 127.637 -51.2695 129.785 -49.1699 132.666 -49.0723 C 135.547 -48.9746 137.891 -51.1719 137.891 -54.0527 L 137.891 -89.5996 C 137.891 -93.7012 135.742 -95.8984 131.592 -95.8984 L 95.752 -95.8984 C 92.8711 -95.8984 90.625 -93.5547 90.7227 -90.625 C 90.8203 -87.7441 92.9688 -85.5957 95.752 -85.5957 L 105.957 -85.5957 L 122.021 -86.5723 L 112.793 -78.1738 L 87.1094 -52.4902 C 85.9863 -51.3184 85.4004 -50 85.4004 -48.4863 C 85.4004 -45.6543 87.6953 -43.5059 90.7715 -43.5059 Z M 107.324 17.2363 C 91.2598 17.4316 71.582 6.34766 53.7109 -11.377 C 35.6934 -29.1504 24.4141 -49.4629 24.6094 -65.5273 C 24.707 -72.2656 27.0996 -78.2227 31.8848 -82.4707 C 32.3242 -82.8613 32.7637 -83.2031 33.1543 -83.5449 C 35.0586 -85.2051 37.1094 -86.084 38.8672 -86.084 C 40.7715 -86.084 42.4316 -85.2539 43.75 -83.3008 L 55.4688 -65.8203 C 57.0801 -63.4277 57.1777 -60.7422 54.6875 -58.3496 L 49.9023 -53.6621 C 45.2637 -49.1211 45.6055 -43.8477 48.4375 -39.6484 C 51.5137 -35.1074 57.7637 -27.9297 63.623 -22.1191 C 69.9219 -15.918 77.5879 -9.13086 81.9336 -6.15234 C 86.084 -3.32031 91.4062 -2.97852 95.8984 -7.66602 L 100.586 -12.4512 C 102.979 -14.8926 105.713 -14.7949 108.057 -13.2324 L 125.195 -1.85547 C 127.197 -0.537109 127.93 1.12305 127.93 2.97852 C 127.93 4.78516 127.1 6.78711 125.391 8.74023 C 125.049 9.17969 124.756 9.57031 124.365 10.0098 C 120.068 14.7949 114.111 17.1875 107.324 17.2363 Z"/>
  </g>
  <g id="Medium-L" transform="matrix(1 0 0 1 1670.16 1556)">
   <path d="M 106.152 26.4648 C 116.699 26.4648 124.17 23.3887 130.859 16.2109 C 131.25 15.7715 131.689 15.2832 132.031 14.8438 C 135.742 10.7422 137.598 6.44531 137.598 2.49023 C 137.598 -1.95312 135.205 -6.00586 129.98 -9.61914 L 111.328 -22.5098 C 105.713 -26.416 99.2188 -26.8555 93.7988 -21.4844 L 89.209 -16.9434 C 87.6465 -15.3809 86.084 -15.1855 84.1797 -16.4062 C 80.9082 -18.5547 74.3164 -24.1211 69.4824 -28.9551 C 64.4043 -33.9844 60.1074 -38.8672 57.6172 -42.9688 C 56.3965 -44.873 56.543 -46.4355 58.1543 -47.998 L 62.6953 -52.6367 C 68.0664 -58.0078 67.627 -64.5508 63.7207 -70.166 L 50.6348 -88.9648 C 47.1191 -94.043 42.9199 -96.4355 38.4766 -96.4844 C 34.4727 -96.582 30.2246 -94.7266 26.1719 -91.0645 C 25.6836 -90.6738 25.2441 -90.2832 24.8047 -89.8926 C 17.5781 -83.2031 14.4531 -75.7812 14.4531 -64.9414 C 14.4531 -46.6797 25.4883 -25.0488 45.8984 -4.78516 C 66.1621 15.3809 87.5488 26.4648 106.152 26.4648 Z M 89.7949 -43.9453 C 91.0645 -43.9453 92.1875 -44.3848 93.1152 -45.3613 L 119.971 -72.2168 L 128.906 -81.8359 L 128.027 -64.7461 L 128.027 -54.4434 C 128.027 -51.9531 129.932 -50 132.471 -49.9512 C 135.059 -49.8535 137.207 -51.8555 137.207 -54.4434 L 137.207 -90.6738 C 137.207 -94.1895 135.352 -96.0938 131.787 -96.0938 L 95.3125 -96.0938 C 92.7246 -96.0938 90.6738 -93.9453 90.7715 -91.3086 C 90.8691 -88.7695 92.8223 -86.8652 95.3125 -86.8652 L 105.908 -86.8652 L 123.145 -87.793 L 113.379 -78.8574 L 86.5234 -51.9531 C 85.4492 -50.9277 84.9609 -49.7559 84.9609 -48.3887 C 84.9609 -45.8496 87.0605 -43.9453 89.7949 -43.9453 Z M 106.104 17.1387 C 90.0879 17.3828 70.1172 5.76172 52.8809 -11.377 C 35.498 -28.6133 23.6328 -49.1699 23.8281 -65.2344 C 23.9258 -72.0703 26.3184 -78.125 31.25 -82.4707 C 31.6406 -82.8125 31.9824 -83.1543 32.4219 -83.4961 C 34.4238 -85.2539 36.5234 -86.1816 38.3789 -86.1816 C 40.332 -86.1816 41.9434 -85.3516 43.2617 -83.3984 L 55.2246 -65.5762 C 56.7871 -63.2812 56.9336 -60.6934 54.4922 -58.3008 L 49.4629 -53.3691 C 45.1172 -49.0723 45.3613 -43.8965 48.1934 -39.8438 C 51.3672 -35.2539 57.5195 -28.1738 63.1348 -22.6074 C 69.043 -16.6992 76.6113 -10.1074 81.0547 -6.98242 C 85.1074 -4.19922 90.2832 -3.90625 94.5801 -8.25195 L 99.5117 -13.2812 C 101.904 -15.7227 104.492 -15.5273 106.787 -14.0137 L 124.414 -2.29492 C 126.367 -0.976562 127.197 0.683594 127.197 2.58789 C 127.197 4.49219 126.27 6.5918 124.463 8.59375 C 124.121 9.0332 123.828 9.375 123.486 9.76562 C 119.092 14.6973 113.037 17.041 106.104 17.1387 Z"/>
  </g>
  <g id="Regular-L" transform="matrix(1 0 0 1 1374.48 1556)">
   <path d="M 88.4766 -44.4824 C 89.5508 -44.4824 90.4785 -44.873 91.3086 -45.7031 L 119.678 -74.1211 L 129.395 -84.4727 L 128.516 -65.8203 L 128.516 -54.9316 C 128.516 -52.832 130.127 -51.1719 132.275 -51.0742 C 134.424 -50.9766 136.279 -52.7344 136.279 -54.9316 L 136.279 -92.041 C 136.279 -94.8242 134.863 -96.2891 132.031 -96.2891 L 94.7266 -96.2891 C 92.4805 -96.2891 90.6738 -94.4336 90.7715 -92.2363 C 90.8691 -90.1367 92.5781 -88.5254 94.7266 -88.5254 L 105.859 -88.5254 L 124.561 -89.4043 L 114.111 -79.6875 L 85.7422 -51.2695 C 84.8145 -50.3418 84.4238 -49.4141 84.4238 -48.2422 C 84.4238 -46.0938 86.1816 -44.4824 88.4766 -44.4824 Z M 104.541 25.3906 C 114.941 25.3906 122.266 22.5098 128.662 15.5273 C 129.053 15.0391 129.443 14.5996 129.834 14.1602 C 133.643 10.0586 135.4 5.9082 135.4 2.00195 C 135.4 -2.24609 133.008 -6.20117 127.881 -9.7168 L 109.619 -22.3633 C 104.248 -26.0742 97.9004 -26.6113 92.5293 -21.2402 L 87.8418 -16.6504 C 86.4258 -15.2344 85.0098 -15.0391 83.3984 -15.9668 C 80.2246 -17.9199 73.291 -23.7305 68.1641 -28.8574 C 62.6465 -34.3262 58.3008 -39.3066 55.8105 -43.6035 C 54.8828 -45.2148 55.0293 -46.582 56.4453 -47.998 L 61.084 -52.6855 C 66.4062 -58.1055 65.8691 -64.4043 62.207 -69.7754 L 49.5605 -88.0371 C 46.0449 -93.1641 42.0898 -95.459 37.8418 -95.5566 C 33.9355 -95.6543 29.7363 -93.75 25.6836 -89.9902 C 25.1953 -89.5996 24.7559 -89.209 24.3164 -88.8184 C 17.3828 -82.4707 14.4531 -75.1465 14.4531 -64.8438 C 14.4531 -47.0703 25.7812 -25.5371 45.6055 -5.76172 C 65.2832 13.916 86.7676 25.3906 104.541 25.3906 Z M 104.59 17.041 C 88.5254 17.2852 68.2617 5.0293 51.7578 -11.377 C 35.2051 -27.8809 22.5586 -48.7793 22.8027 -64.8438 C 22.9004 -71.875 25.3418 -77.9297 30.3711 -82.5195 C 30.7129 -82.8125 31.0547 -83.0566 31.3965 -83.3984 C 33.5449 -85.3516 35.791 -86.3281 37.7441 -86.3281 C 39.6973 -86.3281 41.3574 -85.498 42.6758 -83.5449 L 54.8828 -65.2832 C 56.3477 -63.0859 56.5918 -60.5957 54.1992 -58.252 L 48.877 -52.9785 C 44.9219 -49.0234 45.1172 -43.9941 47.9004 -40.0391 C 51.1719 -35.4492 57.1289 -28.5645 62.5 -23.1934 C 67.9199 -17.7734 75.293 -11.3281 79.8828 -8.10547 C 83.8379 -5.27344 88.8672 -5.07812 92.8223 -9.0332 L 98.0957 -14.3555 C 100.439 -16.748 102.93 -16.5527 105.127 -15.0879 L 123.389 -2.83203 C 125.342 -1.51367 126.172 0.146484 126.172 2.09961 C 126.172 4.05273 125.146 6.29883 123.193 8.49609 C 122.9 8.83789 122.656 9.13086 122.363 9.47266 C 117.773 14.5508 111.621 16.9434 104.59 17.041 Z"/>
  </g>
  <g id="Light-L" transform="matrix(1 0 0 1 1079.13 1556)">
   <path d="M 86.0352 -44.5312 C 86.9141 -44.5312 87.6465 -44.873 88.2812 -45.5078 L 118.359 -75.6836 L 128.076 -85.8887 L 127.49 -66.8945 L 127.49 -54.0039 C 127.49 -52.3438 128.76 -51.0742 130.42 -50.9766 C 132.129 -50.9277 133.545 -52.2949 133.545 -54.0039 L 133.545 -91.9434 C 133.545 -94.0918 132.471 -95.166 130.273 -95.166 L 91.9922 -95.166 C 90.2344 -95.166 88.8184 -93.75 88.8672 -91.9922 C 88.9648 -90.3809 90.332 -89.0625 91.9922 -89.0625 L 105.273 -89.0625 L 124.268 -89.6973 L 114.062 -80.0293 L 83.9355 -49.9023 C 83.2031 -49.1211 82.8613 -48.3887 82.8613 -47.4609 C 82.8613 -45.8008 84.2773 -44.5312 86.0352 -44.5312 Z M 102.441 23.8281 C 112.012 23.8281 119.434 21.0449 125.83 14.3066 C 126.123 13.9648 126.465 13.623 126.709 13.3301 C 130.518 9.32617 132.275 5.17578 132.275 1.36719 C 132.275 -2.49023 130.176 -6.10352 125.781 -9.13086 L 107.568 -21.6309 C 102.588 -25 96.7285 -25.6836 91.1621 -20.2637 L 86.7188 -15.8691 C 85.3027 -14.4531 83.7402 -14.1602 81.8848 -15.1855 C 78.9062 -16.8945 71.875 -22.5098 66.1621 -28.1738 C 59.7656 -34.5215 56.0059 -38.9648 53.4668 -43.6035 C 52.4414 -45.459 52.7344 -47.0215 54.1504 -48.4375 L 58.4961 -52.9297 C 63.9648 -58.4473 63.2812 -64.3555 59.9121 -69.2871 L 47.3633 -87.5 C 44.3848 -91.8945 40.7715 -93.8965 36.9141 -93.9941 C 33.1055 -94.0918 28.9062 -92.1875 24.9512 -88.4277 C 24.6094 -88.1348 24.3164 -87.8906 23.9746 -87.5488 C 17.334 -81.25 14.4531 -73.877 14.4531 -64.4043 C 14.4531 -46.875 26.0742 -25.9766 45.166 -6.88477 C 64.1602 12.0117 84.9609 23.8281 102.441 23.8281 Z M 102.441 17.2363 C 86.4258 17.3828 66.5527 5.32227 49.9023 -11.2793 C 33.1543 -28.0273 20.8984 -48.291 21.0449 -64.4043 C 21.0938 -71.4844 23.5352 -77.7344 28.7109 -82.6172 C 28.9551 -82.8613 29.248 -83.1055 29.4922 -83.3496 C 32.0312 -85.7422 34.5703 -86.9141 36.7188 -86.9141 C 38.8184 -86.9141 40.5273 -85.9375 41.9434 -83.8379 L 54.1992 -65.6738 C 55.8594 -63.1836 56.2012 -60.2539 53.2715 -57.373 L 48.291 -52.4414 C 44.7754 -49.0234 44.8242 -44.3848 47.168 -40.8203 C 49.9023 -36.6211 55.5664 -29.9316 61.6699 -23.7305 C 67.8711 -17.4805 74.9023 -11.6211 79.0527 -8.88672 C 82.666 -6.54297 87.3047 -6.54297 90.7227 -10.0098 L 95.6543 -14.9902 C 98.5352 -17.9199 101.465 -17.5781 103.906 -15.918 L 122.119 -3.71094 C 124.219 -2.24609 125.195 -0.537109 125.195 1.51367 C 125.195 3.71094 124.023 6.25 121.582 8.78906 C 121.289 9.08203 121.143 9.27734 120.898 9.57031 C 115.967 14.7949 109.619 17.1875 102.441 17.2363 Z"/>
  </g>
  <g id="Thin-L" transform="matrix(1 0 0 1 784.23 1556)">
   <path d="M 82.8613 -44.6289 C 83.3496 -44.6289 83.8867 -44.9219 84.2773 -45.3125 L 116.65 -77.7344 L 126.367 -87.6953 L 126.123 -68.3594 L 126.123 -52.7832 C 126.123 -51.7578 126.953 -50.9277 128.027 -50.8789 C 129.053 -50.8789 129.932 -51.7578 129.932 -52.7832 L 129.932 -91.8457 C 129.932 -93.0176 129.248 -93.7012 127.881 -93.7012 L 88.3301 -93.7012 C 87.3047 -93.7012 86.377 -92.7734 86.377 -91.6992 C 86.377 -90.6738 87.3047 -89.7461 88.3301 -89.7461 L 104.541 -89.7461 L 123.926 -90.1367 L 113.965 -80.4199 L 81.5918 -48.0469 C 81.0547 -47.5098 80.8594 -47.0215 80.8594 -46.4844 C 80.8594 -45.4102 81.7383 -44.6289 82.8613 -44.6289 Z M 99.6094 21.7285 C 108.203 21.7285 115.723 19.1406 122.07 12.6953 C 122.266 12.5 122.461 12.3047 122.607 12.1582 C 126.367 8.34961 128.125 4.24805 128.125 0.488281 C 128.125 -2.83203 126.416 -5.95703 122.949 -8.30078 L 104.834 -20.6543 C 100.439 -23.6328 95.1172 -24.5117 89.4043 -18.8965 L 85.2051 -14.8438 C 83.8379 -13.4766 81.9824 -13.0371 79.834 -14.1602 C 77.1484 -15.5273 70.0195 -20.8496 63.4766 -27.2949 C 56.0059 -34.7168 52.9785 -38.4766 50.3418 -43.6035 C 49.2188 -45.8008 49.6582 -47.6562 51.0742 -49.0234 L 55.0781 -53.2227 C 60.6934 -58.9355 59.8145 -64.2578 56.8359 -68.6523 L 44.4824 -86.7676 C 42.1387 -90.2344 39.0625 -91.8457 35.6934 -91.9434 C 31.9824 -92.041 27.7832 -90.0879 24.0234 -86.377 C 23.8281 -86.1816 23.6816 -86.084 23.4863 -85.8887 C 17.2363 -79.6875 14.4531 -72.168 14.4531 -63.8184 C 14.4531 -46.6797 26.416 -26.5137 44.5801 -8.39844 C 62.6465 9.52148 82.5684 21.7285 99.6094 21.7285 Z M 99.6582 17.4805 C 83.6426 17.5293 64.3555 5.71289 47.4121 -11.1816 C 30.4688 -28.1738 18.6523 -47.6562 18.7012 -63.7695 C 18.7012 -70.9473 21.1426 -77.4902 26.4648 -82.7637 C 26.6602 -82.959 26.8066 -83.1055 27.002 -83.3008 C 30.0293 -86.2793 32.959 -87.6465 35.4004 -87.6465 C 37.5977 -87.6465 39.4531 -86.5234 41.0156 -84.2285 L 53.2227 -66.1621 C 55.1758 -63.2812 55.6641 -59.8145 52.002 -56.25 L 47.4609 -51.7578 C 44.6289 -49.0234 44.4824 -44.9219 46.1426 -41.8457 C 48.1934 -38.1348 53.4668 -31.7383 60.5957 -24.4629 C 67.7734 -17.0898 74.3652 -12.0117 78.0273 -9.96094 C 81.1035 -8.30078 85.2051 -8.44727 87.9883 -11.2793 L 92.4316 -15.8203 C 96.0449 -19.4824 99.5117 -18.9941 102.344 -17.041 L 120.41 -4.83398 C 122.705 -3.22266 123.828 -1.41602 123.828 0.78125 C 123.828 3.27148 122.461 6.15234 119.385 9.22852 C 119.238 9.42383 119.141 9.52148 118.945 9.7168 C 113.574 15.1367 106.982 17.4805 99.6582 17.4805 Z"/>
  </g>
  <g id="Ultralight-L" transform="matrix(1 0 0 1 488.446 1556)">
   <path d="M 81.2012 -44.7266 C 81.543 -44.7266 81.9824 -44.9219 82.2266 -45.166 L 115.771 -78.8086 L 125.488 -88.623 L 125.439 -69.0918 L 125.439 -52.1973 C 125.439 -51.4648 126.025 -50.8301 126.758 -50.8301 C 127.49 -50.8789 128.076 -51.4648 128.076 -52.1973 L 128.076 -91.7969 C 128.076 -92.5293 127.637 -92.9688 126.709 -92.9688 L 86.5234 -92.9688 C 85.791 -92.9688 85.1074 -92.2852 85.0586 -91.5527 C 85.0586 -90.8203 85.7422 -90.1367 86.5234 -90.1367 L 104.199 -90.1367 L 123.73 -90.3809 L 113.916 -80.6641 L 80.3711 -47.1191 C 79.9316 -46.6797 79.834 -46.3379 79.834 -45.9473 C 79.834 -45.2148 80.4199 -44.7266 81.2012 -44.7266 Z M 98.1934 20.6543 C 106.25 20.6543 113.818 18.1152 120.166 11.8652 C 120.312 11.7188 120.41 11.6211 120.459 11.5723 C 124.268 7.8125 126.025 3.75977 126.025 0.0488281 C 126.025 -3.02734 124.512 -5.85938 121.533 -7.91016 L 103.467 -20.166 C 99.3164 -22.9492 94.3359 -23.877 88.4766 -18.2129 L 84.4727 -14.3555 C 83.1055 -12.9883 81.1035 -12.4512 78.7598 -13.623 C 76.2695 -14.8438 69.0918 -19.9707 62.1094 -26.8555 C 54.0527 -34.8633 51.416 -38.1836 48.7305 -43.6523 C 47.6074 -45.9473 48.0957 -47.9492 49.4629 -49.3164 L 53.3203 -53.3691 C 58.9844 -59.1797 58.0566 -64.209 55.2734 -68.3105 L 43.0176 -86.377 C 41.0156 -89.4043 38.1348 -90.8203 35.0586 -90.918 C 31.3965 -90.9668 27.1973 -89.0625 23.5352 -85.3516 C 23.4375 -85.2051 23.3887 -85.1562 23.2422 -85.0586 C 17.1875 -78.8574 14.4531 -71.2891 14.4531 -63.5254 C 14.4531 -46.5332 26.6113 -26.8066 44.2871 -9.17969 C 61.8652 8.25195 81.3477 20.6543 98.1934 20.6543 Z M 98.1934 17.627 C 82.1777 17.5781 63.1836 5.9082 46.1914 -11.1328 C 29.0527 -28.2227 17.5293 -47.3145 17.4805 -63.4277 C 17.4805 -70.7031 19.873 -77.3438 25.3418 -82.8125 C 25.4395 -82.959 25.5859 -83.1055 25.7324 -83.252 C 29.0039 -86.5723 32.1289 -88.0371 34.7168 -88.0371 C 37.0117 -88.0371 38.8672 -86.8164 40.5273 -84.4238 L 52.7344 -66.4551 C 54.834 -63.3789 55.4199 -59.6191 51.3672 -55.6641 L 47.0703 -51.416 C 44.5801 -49.0234 44.2871 -45.2148 45.6543 -42.3828 C 47.3145 -38.9648 52.3926 -32.666 60.0098 -24.8535 C 67.7734 -16.9434 74.0723 -12.207 77.4902 -10.5469 C 80.3223 -9.13086 84.1309 -9.47266 86.5723 -11.9629 L 90.7715 -16.2598 C 94.7266 -20.3125 98.4863 -19.6777 101.562 -17.627 L 119.531 -5.37109 C 121.924 -3.75977 123.193 -1.85547 123.193 0.439453 C 123.193 3.07617 121.68 6.15234 118.311 9.47266 C 118.164 9.61914 118.115 9.66797 117.969 9.81445 C 112.402 15.332 105.664 17.627 98.1934 17.627 Z"/>
  </g>
  <g id="Black-M" transform="matrix(1 0 0 1 2869.48 1126)">
   <path d="M 89.6484 17.4316 C 98.291 17.4316 104.932 14.1602 111.475 7.66602 C 111.768 7.37305 112.061 7.03125 112.402 6.68945 C 114.844 3.71094 116.602 -0.439453 116.602 -3.75977 C 116.602 -8.05664 114.99 -11.5234 110.596 -14.5996 L 94.3848 -25.8301 C 88.8184 -29.7363 82.959 -29.6387 78.8086 -25.3418 L 75.8301 -22.3145 C 73.7305 -20.2148 71.5332 -20.0195 68.3594 -22.7051 C 65.6738 -24.9512 62.2559 -28.0273 59.7168 -30.5664 C 57.666 -32.6172 55.0293 -35.5469 53.0762 -37.9883 C 50.5371 -41.1621 50.6348 -43.3594 52.6855 -45.459 L 55.7129 -48.3887 C 60.0098 -52.5879 60.1562 -58.5449 56.2012 -64.0137 L 43.7012 -81.4941 C 41.2109 -84.9609 36.9629 -86.8652 32.6172 -86.8652 C 29.1016 -86.8652 25.5371 -85.6934 22.5098 -83.252 C 22.168 -83.0078 21.8262 -82.7148 21.6797 -82.6172 C 14.5996 -75.4883 11.2305 -69.3359 11.2305 -58.6426 C 11.2305 -41.9922 18.3105 -25.0977 36.8652 -7.12891 C 55.3711 10.791 71.0938 17.4316 89.6484 17.4316 Z M 75.1465 -39.1113 C 77.002 -39.1113 78.8574 -39.8438 80.1758 -41.2109 L 93.6523 -54.541 L 96.7285 -58.2031 L 95.9473 -53.0273 L 95.9473 -47.0703 C 95.9473 -43.3594 98.877 -40.5762 102.881 -40.5762 C 106.787 -40.5762 109.717 -43.2617 109.717 -46.9238 L 109.717 -70.752 C 109.717 -77.002 106.104 -80.6152 99.8535 -80.6152 L 75.4395 -80.6152 C 71.8262 -80.6152 69.0918 -77.5879 69.0918 -73.6816 C 69.0918 -69.7266 71.875 -66.748 75.5859 -66.748 L 82.0312 -66.748 L 87.5977 -67.627 L 83.7402 -64.6484 L 70.2148 -51.123 C 68.7988 -49.707 68.0176 -47.8027 68.0176 -45.7031 C 68.0176 -41.9434 70.9961 -39.1113 75.1465 -39.1113 Z M 89.2578 6.15234 C 76.8555 6.15234 63.4766 0.634766 45.7031 -16.6016 C 27.8809 -33.9355 22.9492 -47.7539 22.9492 -60.1562 C 22.9492 -64.7949 24.7559 -69.1895 27.8809 -71.8262 C 28.3691 -72.2656 28.9062 -72.7051 29.4434 -73.0957 C 30.4199 -73.8281 31.4941 -74.2188 32.5195 -74.2188 C 33.8867 -74.2188 35.2051 -73.5352 36.2793 -72.0215 L 44.0918 -60.6445 C 45.8008 -58.1055 45.6055 -55.2246 43.1152 -52.9297 L 41.0645 -51.0742 C 35.8887 -46.2891 36.4258 -41.6992 38.4277 -38.1348 C 40.2344 -34.7656 45.6055 -28.6133 51.8066 -22.6074 C 59.4238 -15.2344 66.0645 -9.375 68.5059 -8.00781 C 72.0703 -6.05469 76.6602 -5.46875 81.4453 -10.6934 L 83.3008 -12.7441 C 85.5957 -15.2344 88.4766 -15.332 91.0156 -13.7207 L 101.123 -7.17773 C 102.734 -6.10352 103.32 -4.78516 103.32 -3.4668 C 103.32 -2.44141 103.027 -1.36719 102.197 -0.341797 C 101.855 0.195312 101.416 0.732422 100.977 1.26953 C 98.291 4.3457 93.9453 6.15234 89.2578 6.15234 Z"/>
  </g>
  <g id="Heavy-M" transform="matrix(1 0 0 1 2573.87 1126)">
   <path d="M 87.8906 16.3086 C 96.5332 16.3086 102.93 13.2812 109.082 6.98242 C 109.375 6.64062 109.717 6.29883 110.01 5.95703 C 112.598 2.88086 114.307 -1.02539 114.307 -4.29688 C 114.307 -8.39844 112.598 -11.8652 108.203 -14.8926 L 92.4805 -25.7812 C 87.1582 -29.4922 81.4453 -29.4922 77.2949 -25.2441 L 74.1699 -22.0703 C 72.3145 -20.2148 70.3613 -20.0195 67.6758 -22.2168 C 65.0391 -24.3652 61.1328 -27.7832 58.3496 -30.6152 C 55.9082 -33.0566 53.0273 -36.2793 51.0742 -38.8672 C 48.9746 -41.5527 49.0723 -43.457 50.8789 -45.3125 L 54.1016 -48.4863 C 58.3496 -52.6367 58.3984 -58.3496 54.6387 -63.623 L 42.7246 -80.3223 C 40.1367 -83.9844 36.1328 -85.8887 31.9336 -85.9375 C 28.5645 -85.9375 25.0488 -84.7168 21.9727 -82.1777 C 21.6309 -81.8848 21.2402 -81.5918 21.0938 -81.3965 C 14.3555 -74.8047 11.2305 -68.75 11.2305 -58.5938 C 11.2305 -42.5781 18.6523 -25.6836 36.5723 -8.20312 C 54.3945 9.17969 70.459 16.3086 87.8906 16.3086 Z M 73.9258 -39.8926 C 75.5859 -39.8926 77.1973 -40.5273 78.3691 -41.6992 L 93.6523 -56.8848 L 97.7539 -61.5723 L 96.9238 -54.2969 L 96.9238 -47.998 C 96.9238 -44.7266 99.5605 -42.2363 103.027 -42.2363 C 106.445 -42.1875 109.131 -44.6289 109.131 -47.9004 L 109.131 -72.8027 C 109.131 -78.1738 106.055 -81.2012 100.684 -81.2012 L 75.3418 -81.2012 C 72.0703 -81.2012 69.6289 -78.5156 69.6777 -75.0977 C 69.6777 -71.582 72.168 -68.9941 75.4395 -68.9941 L 82.0801 -68.9941 L 89.7461 -69.873 L 84.8633 -65.7715 L 69.5801 -50.4883 C 68.2617 -49.2188 67.627 -47.5586 67.627 -45.7031 C 67.627 -42.3828 70.2637 -39.8926 73.9258 -39.8926 Z M 87.5977 5.9082 C 75.1953 5.95703 61.2305 -0.488281 44.6289 -16.6504 C 28.0273 -32.8613 21.9238 -47.3633 21.9727 -59.7656 C 21.9727 -64.5996 23.7793 -68.9941 27.0508 -71.8262 C 27.5391 -72.2168 28.0273 -72.6074 28.4668 -72.998 C 29.5898 -73.8281 30.7617 -74.2676 31.8848 -74.2676 C 33.3008 -74.2676 34.5703 -73.6328 35.6445 -72.1191 L 43.8477 -60.0586 C 45.3613 -57.8125 45.2637 -55.1758 43.0176 -53.0762 L 40.4297 -50.6348 C 35.6445 -46.1914 36.1328 -41.6992 38.2324 -38.2324 C 40.2832 -34.7656 45.5078 -28.7598 51.123 -23.291 C 57.8613 -16.7969 64.3066 -11.0352 67.0898 -9.375 C 70.5566 -7.27539 75.0488 -6.78711 79.4922 -11.5723 L 81.9336 -14.1602 C 84.0332 -16.4062 86.6211 -16.4551 88.916 -14.9902 L 100 -7.76367 C 101.611 -6.73828 102.148 -5.41992 102.148 -4.10156 C 102.148 -2.92969 101.758 -1.75781 100.83 -0.634766 C 100.488 -0.146484 100.098 0.341797 99.707 0.78125 C 96.875 4.05273 92.4316 5.9082 87.5977 5.9082 Z"/>
  </g>
  <g id="Bold-M" transform="matrix(1 0 0 1 2278.41 1126)">
   <path d="M 85.9375 15.0391 C 94.5312 15.0391 100.635 12.2559 106.396 6.25 C 106.738 5.85938 107.08 5.51758 107.422 5.12695 C 110.107 2.00195 111.67 -1.70898 111.67 -4.88281 C 111.67 -8.78906 109.863 -12.1582 105.469 -15.1855 L 90.2832 -25.7812 C 85.3027 -29.1992 79.7852 -29.3457 75.6348 -25.1465 L 72.2656 -21.7773 C 70.7031 -20.166 69.0918 -20.0684 66.9434 -21.7285 C 64.3066 -23.6816 59.9121 -27.5391 56.8359 -30.6152 C 53.9551 -33.5449 50.7812 -37.0605 48.8281 -39.8438 C 47.2168 -41.9922 47.3145 -43.5547 48.9258 -45.166 L 52.2949 -48.5352 C 56.4941 -52.6855 56.3477 -58.2031 52.8809 -63.1348 L 41.6992 -79.0039 C 38.9648 -82.9102 35.2051 -84.8145 31.25 -84.8633 C 27.9297 -84.9121 24.5605 -83.5938 21.3867 -80.9082 C 21.0449 -80.6152 20.6543 -80.2734 20.3613 -80.0293 C 14.0625 -74.0234 11.2305 -68.1152 11.2305 -58.5449 C 11.2305 -43.2617 19.0918 -26.2695 36.2305 -9.42383 C 53.3203 7.37305 69.6777 15.0391 85.9375 15.0391 Z M 72.5586 -40.7227 C 73.9746 -40.7227 75.293 -41.2598 76.3672 -42.2852 L 93.6035 -59.5215 L 98.877 -65.3809 L 98.0957 -55.6641 L 98.0957 -49.0234 C 98.0957 -46.2402 100.293 -44.0918 103.223 -44.043 C 106.152 -43.9941 108.447 -46.1426 108.447 -48.9746 L 108.447 -75.0488 C 108.447 -79.4434 106.006 -81.8848 101.611 -81.8848 L 75.1953 -81.8848 C 72.4121 -81.8848 70.2637 -79.5898 70.3125 -76.6113 C 70.3125 -73.6816 72.4609 -71.4844 75.293 -71.4844 L 82.1777 -71.4844 L 92.1875 -72.3145 L 86.1328 -67.0898 L 68.8477 -49.8047 C 67.7246 -48.6816 67.1875 -47.3145 67.1875 -45.7031 C 67.1875 -42.8711 69.4336 -40.7227 72.5586 -40.7227 Z M 85.791 5.66406 C 73.3398 5.76172 58.6914 -1.75781 43.457 -16.6992 C 28.1738 -31.6895 20.7031 -46.875 20.8496 -59.3262 C 20.8984 -64.3066 22.7051 -68.7988 26.1719 -71.8262 C 26.6113 -72.168 27.002 -72.5098 27.4414 -72.8516 C 28.6621 -73.8281 29.9805 -74.3652 31.2012 -74.3652 C 32.6172 -74.3652 33.8867 -73.7305 34.9121 -72.2656 L 43.5547 -59.4727 C 44.9219 -57.4219 44.873 -55.127 42.8711 -53.2715 L 39.6973 -50.1465 C 35.4004 -46.0938 35.791 -41.748 37.9883 -38.3301 C 40.332 -34.7656 45.4102 -28.9551 50.3906 -24.0723 C 56.0547 -18.5547 62.3535 -12.9395 65.4297 -10.8887 C 68.8477 -8.64258 73.2422 -8.25195 77.2949 -12.5488 L 80.3711 -15.7227 C 82.2754 -17.7246 84.5703 -17.7246 86.5723 -16.4062 L 98.7305 -8.39844 C 100.293 -7.42188 100.83 -6.10352 100.83 -4.73633 C 100.83 -3.51562 100.342 -2.19727 99.3164 -0.927734 C 98.9746 -0.537109 98.6816 -0.0976562 98.291 0.292969 C 95.3125 3.75977 90.8203 5.61523 85.791 5.66406 Z"/>
  </g>
  <g id="Semibold-M" transform="matrix(1 0 0 1 1982.55 1126)">
   <path d="M 84.5703 14.1602 C 93.1641 14.1602 99.0723 11.5723 104.541 5.71289 C 104.883 5.32227 105.273 4.93164 105.615 4.54102 C 108.398 1.36719 109.863 -2.14844 109.863 -5.27344 C 109.863 -9.0332 107.959 -12.4023 103.613 -15.4297 L 88.7695 -25.7324 C 84.0332 -29.0527 78.6133 -29.248 74.5117 -25.0977 L 70.9961 -21.582 C 69.5801 -20.166 68.2129 -20.0684 66.4551 -21.3379 C 63.8184 -23.2422 59.082 -27.3438 55.8105 -30.6152 C 52.5879 -33.8379 49.2188 -37.6465 47.3145 -40.5273 C 46.0449 -42.2852 46.0938 -43.6523 47.5098 -45.0684 L 51.0254 -48.584 C 55.1758 -52.6855 54.9805 -58.1055 51.6602 -62.8418 L 40.9668 -78.0762 C 38.1348 -82.1289 34.5215 -84.082 30.7617 -84.1309 C 27.5391 -84.1797 24.2188 -82.8125 20.9961 -80.0781 C 20.6055 -79.7363 20.2148 -79.3945 19.9219 -79.1016 C 13.8672 -73.4863 11.2305 -67.6758 11.2305 -58.4961 C 11.2305 -43.7012 19.3359 -26.709 35.9863 -10.2539 C 52.5879 6.10352 69.1895 14.1602 84.5703 14.1602 Z M 71.6309 -41.3086 C 72.9004 -41.3086 74.0234 -41.7969 74.9512 -42.7246 L 93.5547 -61.3281 L 99.6582 -68.0176 L 98.877 -56.6406 L 98.877 -49.7559 C 98.877 -47.3145 100.781 -45.4102 103.32 -45.3125 C 105.908 -45.2637 108.008 -47.2168 108.008 -49.707 L 108.008 -76.6113 C 108.008 -80.3223 106.006 -82.373 102.246 -82.373 L 75.1465 -82.373 C 72.6074 -82.373 70.6543 -80.2734 70.7031 -77.6855 C 70.8008 -75.0977 72.7051 -73.2422 75.1465 -73.2422 L 82.2754 -73.2422 L 93.8477 -74.0234 L 87.0117 -67.9688 L 68.3594 -49.3164 C 67.334 -48.291 66.8457 -47.1191 66.8457 -45.752 C 66.8457 -43.2129 68.8965 -41.3086 71.6309 -41.3086 Z M 84.5215 5.46875 C 72.0703 5.61523 56.9336 -2.63672 42.627 -16.748 C 28.3203 -30.9082 19.9219 -46.582 20.0684 -58.9844 C 20.1172 -64.1602 21.9727 -68.7012 25.5859 -71.8262 C 25.9766 -72.1191 26.3184 -72.4121 26.709 -72.7539 C 28.0273 -73.8281 29.4434 -74.4141 30.7129 -74.4141 C 32.1289 -74.4141 33.3984 -73.8281 34.375 -72.3633 L 43.3594 -59.0332 C 44.5801 -57.1777 44.5801 -55.127 42.7734 -53.3691 L 39.1602 -49.8535 C 35.2051 -46.0449 35.5469 -41.748 37.8418 -38.3789 C 40.332 -34.7656 45.3613 -29.0527 49.8535 -24.6094 C 54.834 -19.7266 60.9863 -14.2578 64.3066 -11.9141 C 67.6758 -9.61914 71.9727 -9.27734 75.7812 -13.2324 L 79.2969 -16.7969 C 81.0547 -18.6523 83.1543 -18.6035 84.9609 -17.3828 L 97.9004 -8.83789 C 99.4141 -7.86133 99.9512 -6.5918 99.9512 -5.22461 C 99.9512 -3.90625 99.3652 -2.49023 98.2422 -1.17188 C 97.9492 -0.78125 97.6562 -0.439453 97.3633 -0.0488281 C 94.1895 3.56445 89.6484 5.41992 84.5215 5.46875 Z"/>
  </g>
  <g id="Medium-M" transform="matrix(1 0 0 1 1686.5 1126)">
   <path d="M 83.5449 13.4766 C 92.0898 13.4766 97.9004 11.0352 103.174 5.32227 C 103.516 4.93164 103.857 4.49219 104.199 4.10156 C 107.08 0.878906 108.496 -2.49023 108.496 -5.61523 C 108.496 -9.27734 106.543 -12.5977 102.197 -15.5762 L 87.6465 -25.7324 C 83.0566 -28.9062 77.7344 -29.1504 73.6328 -25.0488 L 70.0195 -21.4355 C 68.75 -20.166 67.5293 -20.0684 66.0645 -21.0938 C 63.4277 -22.8516 58.4473 -27.2461 55.0293 -30.6641 C 51.5625 -34.1309 48.0469 -38.0371 46.1426 -41.0156 C 45.1172 -42.5293 45.2148 -43.7012 46.4844 -44.9707 L 50.0977 -48.584 C 54.1992 -52.6855 53.9551 -58.0078 50.7324 -62.5977 L 40.3809 -77.3926 C 37.5 -81.5918 34.0332 -83.5449 30.3711 -83.5938 C 27.2461 -83.6426 23.9258 -82.2266 20.7031 -79.3945 C 20.3125 -79.0527 19.9219 -78.7109 19.5312 -78.3691 C 13.7207 -73.0469 11.2305 -67.334 11.2305 -58.4473 C 11.2305 -44.043 19.5801 -27.0508 35.8398 -10.8887 C 52.002 5.17578 68.7988 13.4766 83.5449 13.4766 Z M 70.8984 -41.7969 C 72.0703 -41.7969 73.0469 -42.1875 73.877 -43.0176 L 93.5547 -62.6953 L 100.244 -70.0195 L 99.4629 -57.373 L 99.4629 -50.3418 C 99.4629 -48.0957 101.172 -46.3867 103.418 -46.2891 C 105.762 -46.1914 107.666 -47.998 107.666 -50.293 L 107.666 -77.7832 C 107.666 -81.0059 105.957 -82.7148 102.734 -82.7148 L 75.0488 -82.7148 C 72.7539 -82.7148 70.9473 -80.8105 71.0449 -78.4668 C 71.1426 -76.2207 72.8516 -74.5117 75.0977 -74.5117 L 82.3242 -74.5117 L 95.0684 -75.3418 L 87.6465 -68.6523 L 68.0176 -48.9258 C 67.0898 -47.998 66.6504 -46.9727 66.6504 -45.752 C 66.6504 -43.5059 68.457 -41.7969 70.8984 -41.7969 Z M 83.5449 5.32227 C 71.0938 5.51758 55.6152 -3.32031 42.041 -16.7969 C 28.3691 -30.2734 19.2871 -46.3379 19.4824 -58.7891 C 19.5801 -64.0137 21.4355 -68.6035 25.0977 -71.8262 C 25.4883 -72.1191 25.7812 -72.3633 26.1719 -72.6562 C 27.5391 -73.8281 29.0039 -74.4629 30.3711 -74.4629 C 31.7871 -74.4629 33.0566 -73.877 34.0332 -72.4121 L 43.1641 -58.6914 C 44.3359 -57.0312 44.3848 -55.127 42.6758 -53.4668 L 38.7695 -49.6094 C 35.0586 -45.9961 35.4004 -41.748 37.7441 -38.4277 C 40.3809 -34.7656 45.3125 -29.1504 49.4629 -25.0488 C 53.9062 -20.6543 59.9609 -15.2344 63.4766 -12.6953 C 66.7969 -10.3516 71.0449 -10.0098 74.6582 -13.7207 L 78.5156 -17.627 C 80.127 -19.3359 82.0312 -19.2871 83.7402 -18.1641 L 97.2168 -9.17969 C 98.7305 -8.20312 99.2676 -6.98242 99.2676 -5.56641 C 99.2676 -4.19922 98.6328 -2.73438 97.4609 -1.31836 C 97.168 -0.976562 96.9238 -0.683594 96.6309 -0.292969 C 93.4082 3.41797 88.8184 5.27344 83.5449 5.32227 Z"/>
  </g>
  <g id="Regular-M" transform="matrix(1 0 0 1 1390.62 1126)">
   <path d="M 69.9707 -42.334 C 70.9473 -42.334 71.7773 -42.6758 72.5098 -43.4082 L 93.5547 -64.502 L 101.025 -72.6074 L 100.244 -58.3008 L 100.244 -51.0254 C 100.244 -49.1211 101.66 -47.6562 103.564 -47.5586 C 105.518 -47.4609 107.227 -49.0234 107.227 -51.0254 L 107.227 -79.2969 C 107.227 -81.8848 105.957 -83.2031 103.369 -83.2031 L 75 -83.2031 C 72.998 -83.2031 71.3867 -81.543 71.4844 -79.541 C 71.582 -77.6367 73.0957 -76.2207 75 -76.2207 L 82.373 -76.2207 L 96.7285 -77.002 L 88.5254 -69.5312 L 67.5293 -48.4375 C 66.6992 -47.6562 66.3086 -46.7773 66.3086 -45.752 C 66.3086 -43.8477 67.9199 -42.334 69.9707 -42.334 Z M 82.2266 12.6465 C 90.7715 12.6465 96.3867 10.3516 101.318 4.78516 C 101.709 4.39453 102.1 3.95508 102.441 3.56445 C 105.371 0.292969 106.738 -2.92969 106.738 -6.00586 C 106.738 -9.52148 104.688 -12.793 100.342 -15.8203 L 86.1328 -25.6836 C 81.7383 -28.7109 76.6113 -29.0527 72.5098 -25 L 68.75 -21.2402 C 67.627 -20.1172 66.6504 -20.0684 65.5762 -20.752 C 62.9395 -22.4121 57.6172 -27.0508 54.0039 -30.6641 C 50.1953 -34.4238 46.5332 -38.623 44.5801 -41.6992 C 43.9453 -42.8223 43.9941 -43.75 45.1172 -44.873 L 48.8281 -48.6328 C 52.9297 -52.7344 52.5879 -57.9102 49.5605 -62.2559 L 39.6973 -76.4648 C 36.6699 -80.8105 33.3984 -82.8125 29.8828 -82.8613 C 26.8066 -82.9102 23.584 -81.4941 20.3125 -78.5645 C 19.873 -78.1738 19.4824 -77.832 19.0918 -77.4902 C 13.5254 -72.5098 11.2305 -66.8945 11.2305 -58.4473 C 11.2305 -44.4824 19.8242 -27.4902 35.5957 -11.7188 C 51.2695 3.95508 68.3105 12.6465 82.2266 12.6465 Z M 82.2754 5.12695 C 69.8242 5.37109 53.8574 -4.19922 41.2109 -16.7969 C 28.4668 -29.4922 18.457 -45.9961 18.7012 -58.4473 C 18.7988 -63.8184 20.7031 -68.457 24.5117 -71.7773 C 24.8535 -72.0703 25.0977 -72.3145 25.4395 -72.5586 C 26.9043 -73.8281 28.4668 -74.5117 29.8828 -74.5117 C 31.2988 -74.5117 32.5684 -73.9746 33.4961 -72.5098 L 42.9688 -58.3008 C 43.9941 -56.7871 44.0918 -55.0781 42.5781 -53.5645 L 38.2812 -49.2676 C 34.9121 -45.8984 35.1562 -41.7969 37.5977 -38.5254 C 40.3809 -34.7656 45.2148 -29.2969 48.9746 -25.5859 C 52.6855 -21.8262 58.5938 -16.5527 62.4023 -13.7207 C 65.6738 -11.2793 69.7754 -11.0352 73.1445 -14.4043 L 77.4414 -18.7012 C 78.9551 -20.2148 80.6152 -20.1172 82.1777 -19.1406 L 96.3867 -9.66797 C 97.8516 -8.69141 98.3887 -7.4707 98.3887 -6.00586 C 98.3887 -4.58984 97.7051 -3.02734 96.4355 -1.5625 C 96.1426 -1.2207 95.9473 -0.976562 95.6543 -0.634766 C 92.334 3.17383 87.6953 5.0293 82.2754 5.12695 Z"/>
  </g>
  <g id="Light-M" transform="matrix(1 0 0 1 1095.15 1126)">
   <path d="M 67.8223 -42.4316 C 68.5547 -42.4316 69.2383 -42.7246 69.8242 -43.2617 L 92.3828 -65.918 L 99.8535 -73.877 L 99.2676 -59.2773 L 99.2676 -50.1953 C 99.2676 -48.7305 100.439 -47.5586 101.904 -47.4609 C 103.467 -47.4121 104.736 -48.6328 104.736 -50.1953 L 104.736 -79.248 C 104.736 -81.1523 103.76 -82.1777 101.758 -82.1777 L 72.5098 -82.1777 C 70.9961 -82.1777 69.7266 -80.9082 69.7754 -79.3457 C 69.8242 -77.832 71.0449 -76.709 72.5098 -76.709 L 81.8848 -76.709 L 96.4844 -77.2949 L 88.4766 -69.8242 L 65.918 -47.2168 C 65.2344 -46.5332 64.9414 -45.8984 64.9414 -45.0684 C 64.9414 -43.5547 66.2109 -42.4316 67.8223 -42.4316 Z M 80.3223 11.2305 C 88.1348 11.2305 93.8477 9.0332 98.7793 3.71094 C 99.0723 3.36914 99.3652 3.07617 99.6094 2.7832 C 102.539 -0.390625 103.955 -3.61328 103.955 -6.5918 C 103.955 -9.76562 102.148 -12.6953 98.4375 -15.2344 L 84.2773 -25 C 80.2734 -27.7832 75.5371 -28.2227 71.2891 -24.0723 L 67.7246 -20.5566 C 66.6504 -19.4824 65.4785 -19.2871 64.1602 -20.0195 C 61.7676 -21.4844 56.3477 -25.9277 52.1973 -30.0781 C 47.6562 -34.6191 44.4336 -38.2812 42.4805 -41.6992 C 41.748 -43.0176 41.9434 -44.1895 43.0176 -45.2637 L 46.5332 -48.8281 C 50.6836 -53.0762 50.2441 -57.8125 47.4609 -61.8164 L 37.6953 -75.9766 C 35.1562 -79.6875 32.2266 -81.3965 29.0527 -81.4941 C 26.0742 -81.543 22.8027 -80.0781 19.6777 -77.1484 C 19.3848 -76.9043 19.0918 -76.6113 18.75 -76.3184 C 13.4766 -71.4355 11.2305 -65.7715 11.2305 -58.0566 C 11.2305 -44.3359 20.1172 -27.832 35.2051 -12.7441 C 50.2441 2.24609 66.6992 11.2305 80.3223 11.2305 Z M 80.3711 5.32227 C 67.9199 5.46875 52.3438 -3.90625 39.5508 -16.748 C 26.6602 -29.5898 16.9922 -45.5566 17.1387 -58.0566 C 17.1875 -63.4766 19.043 -68.2617 22.998 -71.9238 C 23.291 -72.1191 23.4863 -72.3145 23.7305 -72.5098 C 25.5371 -74.1699 27.3926 -75 28.9551 -75 C 30.5176 -75 31.8359 -74.3652 32.8613 -72.7539 L 42.334 -58.6426 C 43.5547 -56.8359 43.75 -54.7852 41.748 -52.7832 L 37.7441 -48.8281 C 34.8145 -45.8984 34.9121 -42.1387 36.9141 -39.209 C 39.2578 -35.791 43.7988 -30.5176 48.1934 -26.0742 C 52.6367 -21.582 58.252 -16.7969 61.6699 -14.4531 C 64.5996 -12.4512 68.3594 -12.3535 71.2891 -15.2832 L 75.2441 -19.2871 C 77.2461 -21.2891 79.2969 -21.0938 81.1035 -19.873 L 95.2148 -10.4004 C 96.8262 -9.375 97.4609 -8.05664 97.4609 -6.49414 C 97.4609 -4.88281 96.6309 -3.07617 94.9707 -1.26953 C 94.7266 -0.976562 94.5801 -0.830078 94.3848 -0.537109 C 90.7227 3.41797 85.8887 5.27344 80.3711 5.32227 Z"/>
  </g>
  <g id="Thin-M" transform="matrix(1 0 0 1 800.05 1126)">
   <path d="M 64.9414 -42.5293 C 65.3809 -42.5293 65.8691 -42.7246 66.2109 -43.0664 L 90.8203 -67.7246 L 98.3398 -75.4883 L 98.0469 -60.5957 L 98.0469 -49.1211 C 98.0469 -48.1934 98.8281 -47.4121 99.7559 -47.4121 C 100.732 -47.3633 101.514 -48.1445 101.514 -49.1211 L 101.514 -79.1504 C 101.514 -80.2734 100.879 -80.8594 99.6582 -80.8594 L 69.2871 -80.8594 C 68.3105 -80.8594 67.4805 -80.0293 67.5293 -79.0527 C 67.5293 -78.125 68.3594 -77.3438 69.2871 -77.3438 L 81.2012 -77.3438 L 96.1426 -77.6855 L 88.3789 -70.166 L 63.7695 -45.5566 C 63.3301 -45.1172 63.1348 -44.6777 63.1348 -44.1406 C 63.1348 -43.2129 63.916 -42.5293 64.9414 -42.5293 Z M 77.832 9.375 C 84.7168 9.375 90.5273 7.32422 95.459 2.24609 C 95.6055 2.05078 95.8008 1.9043 95.9473 1.75781 C 98.877 -1.26953 100.244 -4.44336 100.244 -7.37305 C 100.244 -10.0586 98.8281 -12.5977 95.9473 -14.5508 L 81.8848 -24.1211 C 78.3203 -26.5625 74.1211 -27.1484 69.6777 -22.8516 L 66.4062 -19.6777 C 65.332 -18.6035 63.9648 -18.2617 62.3535 -19.0918 C 60.2051 -20.2637 54.6875 -24.4141 49.8047 -29.2969 C 44.2383 -34.8145 41.748 -37.8418 39.6973 -41.748 C 38.8672 -43.3594 39.209 -44.7266 40.2832 -45.8008 L 43.457 -49.1211 C 47.7539 -53.5156 47.168 -57.7148 44.7266 -61.2793 L 35.1562 -75.3418 C 33.1543 -78.2227 30.6641 -79.5898 27.9297 -79.6387 C 25.0488 -79.6875 21.7773 -78.2227 18.8477 -75.3418 C 18.6523 -75.1465 18.5547 -75.0488 18.3594 -74.8535 C 13.3789 -70.0195 11.2305 -64.209 11.2305 -57.5195 C 11.2305 -44.1406 20.4102 -28.3691 34.7168 -14.1113 C 48.877 0 64.5508 9.375 77.832 9.375 Z M 77.8809 5.56641 C 65.4297 5.61523 50.3906 -3.56445 37.3047 -16.6016 C 24.2188 -29.7363 14.9902 -45.0195 15.0391 -57.4707 C 15.0391 -63.0371 16.8945 -68.0176 20.9961 -72.0215 C 21.1914 -72.168 21.3379 -72.3145 21.4844 -72.5098 C 23.7305 -74.6582 25.9277 -75.6836 27.7344 -75.6836 C 29.4434 -75.6836 30.8105 -74.8535 32.0312 -73.0957 L 41.5039 -59.082 C 42.9199 -56.9824 43.3105 -54.3945 40.625 -51.7578 L 37.0117 -48.1934 C 34.668 -45.8984 34.5703 -42.627 36.0352 -40.1367 C 37.7441 -37.1582 41.8945 -32.1289 47.2168 -26.709 C 52.5879 -21.2891 57.7637 -17.1387 60.7422 -15.4297 C 63.2324 -13.9648 66.5039 -14.0625 68.7988 -16.4062 L 72.3633 -20.0195 C 75 -22.7051 77.5391 -22.3145 79.6875 -20.8984 L 93.7012 -11.4258 C 95.459 -10.2539 96.2891 -8.83789 96.2891 -7.17773 C 96.2891 -5.27344 95.2637 -3.125 93.0176 -0.878906 C 92.8711 -0.683594 92.7734 -0.585938 92.627 -0.439453 C 88.5742 3.71094 83.4961 5.56641 77.8809 5.56641 Z"/>
  </g>
  <g id="Ultralight-M" transform="matrix(1 0 0 1 504.169 1126)">
   <path d="M 63.4766 -42.5781 C 63.7695 -42.5781 64.1113 -42.7246 64.3555 -42.9688 L 89.9902 -68.7012 L 97.5586 -76.3184 L 97.4121 -61.2305 L 97.4121 -48.5352 C 97.4121 -47.9004 97.998 -47.3633 98.6328 -47.3633 C 99.3164 -47.3633 99.8535 -47.9004 99.8535 -48.5352 L 99.8535 -79.0527 C 99.8535 -79.7852 99.4141 -80.2246 98.584 -80.2246 L 67.627 -80.2246 C 66.9434 -80.2246 66.3574 -79.5898 66.3574 -78.9551 C 66.3574 -78.2715 66.9434 -77.6855 67.627 -77.6855 L 80.8594 -77.6855 L 95.9961 -77.9297 L 88.3301 -70.3613 L 62.6953 -44.7266 C 62.3047 -44.3848 62.207 -44.043 62.207 -43.7012 C 62.207 -43.0176 62.7441 -42.5781 63.4766 -42.5781 Z M 76.5625 8.39844 C 82.959 8.39844 88.8184 6.44531 93.75 1.51367 C 93.8477 1.41602 93.9941 1.26953 94.043 1.2207 C 96.9727 -1.70898 98.3398 -4.88281 98.3398 -7.76367 C 98.3398 -10.2051 97.1191 -12.5 94.6289 -14.1602 L 80.6152 -23.6816 C 77.3438 -25.9277 73.3887 -26.6113 68.8965 -22.2656 L 65.7227 -19.1895 C 64.6484 -18.1641 63.1348 -17.7734 61.377 -18.6523 C 59.4238 -19.6289 53.8574 -23.6816 48.584 -28.8574 C 42.4805 -34.9121 40.332 -37.5977 38.2812 -41.748 C 37.4023 -43.5059 37.793 -45.0195 38.8672 -46.0449 L 41.8945 -49.2188 C 46.2402 -53.7109 45.5566 -57.7148 43.3594 -60.9863 L 33.7891 -75 C 32.1289 -77.4414 29.8828 -78.6133 27.3926 -78.6621 C 24.5117 -78.7598 21.2891 -77.2461 18.4082 -74.3652 C 18.3105 -74.2676 18.2617 -74.2188 18.1152 -74.0723 C 13.3301 -69.2871 11.2305 -63.4277 11.2305 -57.2266 C 11.2305 -44.043 20.6055 -28.6133 34.4727 -14.7949 C 48.1934 -1.12305 63.4277 8.39844 76.5625 8.39844 Z M 76.5625 5.71289 C 64.1602 5.71289 49.3652 -3.41797 36.1816 -16.5527 C 22.9492 -29.7852 13.9648 -44.7266 13.9648 -57.1777 C 13.9648 -62.793 15.8203 -67.9199 20.0195 -72.1191 C 20.1172 -72.2168 20.2637 -72.3633 20.3613 -72.4609 C 22.8027 -74.9023 25.1953 -76.0254 27.1484 -76.0254 C 28.9062 -76.0254 30.3223 -75.0977 31.5918 -73.291 L 41.0645 -59.3262 C 42.627 -57.0312 43.0664 -54.1992 40.0391 -51.2207 L 36.6211 -47.9004 C 34.6191 -45.8984 34.4238 -42.8711 35.5469 -40.5762 C 36.9629 -37.8906 40.9668 -32.959 46.7285 -27.0508 C 52.5391 -21.0938 57.5195 -17.334 60.2539 -15.918 C 62.5488 -14.7461 65.5762 -14.9414 67.5293 -16.9922 L 70.8984 -20.4102 C 73.8281 -23.4375 76.6602 -22.9492 79.0039 -21.3867 L 92.9199 -11.9141 C 94.7266 -10.6934 95.7031 -9.22852 95.7031 -7.4707 C 95.7031 -5.46875 94.5801 -3.17383 92.041 -0.634766 C 91.9434 -0.537109 91.8457 -0.488281 91.748 -0.341797 C 87.5 3.90625 82.3242 5.71289 76.5625 5.71289 Z"/>
  </g>
  <g id="Black-S" transform="matrix(1 0 0 1 2883.4 696)">
   <path d="M 70.1172 5.95703 C 76.9043 5.95703 82.0801 3.41797 87.1582 -1.66016 C 87.4023 -1.9043 87.6465 -2.14844 87.8906 -2.44141 C 89.8438 -4.78516 91.2109 -8.00781 91.2109 -10.5957 C 91.2109 -13.9648 89.9414 -16.6992 86.4746 -19.0918 L 73.8281 -27.8809 C 69.4824 -30.9082 64.8926 -30.8594 61.6211 -27.4902 L 59.2773 -25.0977 C 57.666 -23.4863 55.957 -23.3398 53.5156 -25.3906 C 51.416 -27.1484 48.6816 -29.5898 46.6797 -31.5918 C 45.0684 -33.2031 42.9688 -35.5469 41.4551 -37.4512 C 39.502 -39.8926 39.5508 -41.6016 41.1621 -43.2129 L 43.5547 -45.5566 C 46.9238 -48.8281 47.0215 -53.4668 43.9453 -57.7637 L 34.1797 -71.3867 C 32.2266 -74.1211 28.9062 -75.6348 25.4883 -75.6348 C 22.7539 -75.6348 19.9707 -74.707 17.5781 -72.8027 C 17.334 -72.6074 17.041 -72.3633 16.9434 -72.2656 C 11.4258 -66.748 8.78906 -61.9141 8.78906 -53.5645 C 8.78906 -40.5762 14.3555 -27.3438 28.8574 -13.2812 C 43.3105 0.732422 55.6641 5.95703 70.1172 5.95703 Z M 58.7891 -38.3301 C 60.2539 -38.3301 61.6699 -38.916 62.6953 -39.9414 L 73.3887 -50.5371 L 75.8789 -53.4668 L 75.2441 -49.2676 L 75.2441 -44.5801 C 75.2441 -41.6992 77.5391 -39.5508 80.6152 -39.5508 C 83.6426 -39.5508 85.9375 -41.6504 85.9375 -44.4824 L 85.9375 -63.2324 C 85.9375 -68.0664 83.1543 -70.8496 78.3203 -70.8496 L 59.1309 -70.8496 C 56.2988 -70.8496 54.1992 -68.5059 54.1992 -65.4785 C 54.1992 -62.4023 56.3477 -60.1074 59.2285 -60.1074 L 64.2578 -60.1074 L 68.7988 -60.791 L 65.6738 -58.3496 L 54.9805 -47.6562 C 53.8574 -46.5332 53.2715 -45.0684 53.2715 -43.457 C 53.2715 -40.5273 55.5664 -38.3301 58.7891 -38.3301 Z M 69.8242 -2.83203 C 60.1074 -2.83203 49.5605 -7.22656 35.7422 -20.6543 C 21.875 -34.1309 17.9199 -45.0195 17.9199 -54.7363 C 17.9199 -58.3984 19.3359 -61.8164 21.7773 -63.916 C 22.168 -64.2578 22.6074 -64.5996 22.998 -64.8926 C 23.7793 -65.4785 24.6094 -65.7715 25.4395 -65.7715 C 26.5137 -65.7715 27.5391 -65.2344 28.3691 -64.0625 L 34.5215 -55.0781 C 35.8398 -53.125 35.6934 -50.8789 33.7891 -49.1211 L 32.1289 -47.6074 C 28.0762 -43.8965 28.5156 -40.2832 30.0781 -37.5 C 31.543 -34.8633 35.7422 -30.0293 40.5273 -25.3906 C 46.4355 -19.6777 51.6113 -15.0879 53.5645 -14.0137 C 56.3477 -12.4512 59.9609 -12.0117 63.6719 -16.0645 L 65.1855 -17.7246 C 66.9434 -19.6289 69.1895 -19.7266 71.1426 -18.457 L 79.1504 -13.2812 C 80.4199 -12.4512 80.8594 -11.4258 80.8594 -10.4004 C 80.8594 -9.57031 80.6152 -8.74023 79.9805 -7.91016 C 79.6875 -7.51953 79.3457 -7.08008 79.0039 -6.68945 C 76.9043 -4.24805 73.4863 -2.83203 69.8242 -2.83203 Z"/>
  </g>
  <g id="Heavy-S" transform="matrix(1 0 0 1 2587.4 696)">
   <path d="M 68.9941 5.22461 C 75.8301 5.22461 80.8105 2.88086 85.5957 -2.05078 C 85.8887 -2.34375 86.1328 -2.58789 86.4258 -2.92969 C 88.4277 -5.32227 89.7461 -8.39844 89.7461 -10.9375 C 89.7461 -14.209 88.3789 -16.9434 84.8145 -19.3848 L 72.5586 -27.9297 C 68.3594 -30.8105 63.8672 -30.8594 60.6445 -27.5391 L 58.1055 -25 C 56.6895 -23.5352 55.2246 -23.4375 53.1738 -25.0977 C 51.0742 -26.8066 47.998 -29.541 45.8496 -31.6895 C 43.9941 -33.4961 41.6504 -36.1328 40.1367 -38.1348 C 38.5254 -40.1855 38.5742 -41.6504 40.0391 -43.0664 L 42.5781 -45.5566 C 45.8984 -48.8281 45.8984 -53.3691 42.9688 -57.4707 L 33.6914 -70.5566 C 31.5918 -73.4863 28.3691 -75.0488 25.0977 -75.0488 C 22.4121 -75.0977 19.6777 -74.1211 17.2363 -72.1191 C 16.9922 -71.875 16.6504 -71.6309 16.5039 -71.4844 C 11.2305 -66.3086 8.78906 -61.6211 8.78906 -53.5645 C 8.78906 -41.0645 14.5996 -27.7344 28.6621 -14.0137 C 42.6758 -0.341797 55.3223 5.22461 68.9941 5.22461 Z M 58.1055 -38.916 C 59.4238 -38.916 60.6934 -39.4043 61.6211 -40.3809 L 73.4863 -52.1973 L 76.7578 -55.9082 L 76.123 -50.0977 L 76.123 -45.4102 C 76.123 -42.7734 78.1738 -40.8203 80.9082 -40.8203 C 83.6426 -40.7715 85.7422 -42.7246 85.7422 -45.3125 L 85.7422 -64.7949 C 85.7422 -69.043 83.3496 -71.4355 79.1504 -71.4355 L 59.3262 -71.4355 C 56.7383 -71.4355 54.7852 -69.2871 54.834 -66.5527 C 54.834 -63.8184 56.7871 -61.7676 59.375 -61.7676 L 64.3555 -61.7676 L 70.459 -62.4512 L 66.5527 -59.1797 L 54.6875 -47.3145 C 53.6621 -46.2891 53.125 -44.9707 53.125 -43.5547 C 53.125 -40.918 55.2246 -38.916 58.1055 -38.916 Z M 68.7988 -3.02734 C 59.0332 -2.97852 47.998 -8.10547 35.1074 -20.7031 C 22.168 -33.3008 17.2852 -44.7266 17.334 -54.4922 C 17.334 -58.252 18.7988 -61.7188 21.3379 -63.916 C 21.7285 -64.209 22.1191 -64.502 22.4609 -64.7949 C 23.291 -65.4297 24.1699 -65.7715 25.0488 -65.7715 C 26.123 -65.7715 27.1484 -65.2832 27.9297 -64.1113 L 34.375 -54.6387 C 35.5469 -52.8809 35.4492 -50.8789 33.7891 -49.3164 L 31.6895 -47.3145 C 27.9297 -43.8477 28.3203 -40.2832 30.0293 -37.5 C 31.6895 -34.7168 35.8398 -30.0293 40.0879 -25.8789 C 45.2148 -20.8984 50.293 -16.3574 52.5391 -14.9414 C 55.3223 -13.2812 58.8867 -12.8906 62.4023 -16.6504 L 64.3555 -18.75 C 65.918 -20.4102 67.9199 -20.5078 69.6777 -19.3359 L 78.418 -13.623 C 79.6387 -12.8418 80.0781 -11.8164 80.0781 -10.791 C 80.0781 -9.91211 79.7852 -9.0332 79.1016 -8.1543 C 78.8086 -7.8125 78.5156 -7.42188 78.1738 -7.03125 C 76.0254 -4.49219 72.5586 -3.07617 68.7988 -3.02734 Z"/>
  </g>
  <g id="Bold-S" transform="matrix(1 0 0 1 2291.49 696)">
   <path d="M 67.7246 4.44336 C 74.6094 4.44336 79.3945 2.24609 83.8867 -2.49023 C 84.1797 -2.83203 84.4727 -3.125 84.7656 -3.4668 C 86.8652 -5.95703 88.0859 -8.83789 88.0859 -11.3281 C 88.0859 -14.4531 86.5723 -17.1875 83.0078 -19.6777 L 71.0938 -27.9785 C 67.1387 -30.7617 62.6953 -30.8105 59.5215 -27.5879 L 56.7871 -24.8535 C 55.5664 -23.584 54.3945 -23.5352 52.7832 -24.8047 C 50.6348 -26.416 47.2168 -29.4922 44.9219 -31.7871 C 42.8223 -33.8867 40.1855 -36.7676 38.7207 -38.8672 C 37.5 -40.4785 37.5 -41.6504 38.7695 -42.9199 L 41.4551 -45.6055 C 44.7266 -48.8281 44.6777 -53.2227 41.8945 -57.1777 L 33.1055 -69.5801 C 30.8594 -72.8027 27.832 -74.4141 24.6582 -74.4141 C 22.0703 -74.4629 19.3848 -73.4375 16.8945 -71.3379 C 16.6016 -71.0449 16.2598 -70.8008 16.0156 -70.5566 C 11.0352 -65.8691 8.78906 -61.2793 8.78906 -53.5645 C 8.78906 -41.5527 14.8926 -28.1738 28.4668 -14.7949 C 41.9922 -1.51367 54.9805 4.44336 67.7246 4.44336 Z M 57.3242 -39.5508 C 58.4961 -39.5508 59.5703 -39.9902 60.4004 -40.8203 L 73.6328 -54.0039 L 77.7832 -58.6914 L 77.0996 -51.0742 L 77.0996 -46.2891 C 77.0996 -43.9941 78.9062 -42.2852 81.25 -42.2363 C 83.6426 -42.1875 85.5469 -43.9453 85.5469 -46.2402 L 85.5469 -66.5039 C 85.5469 -70.0684 83.5938 -72.0703 80.0293 -72.0703 L 59.5215 -72.0703 C 57.2266 -72.0703 55.4688 -70.166 55.5176 -67.7734 C 55.5664 -65.3809 57.2754 -63.623 59.5703 -63.623 L 64.502 -63.623 L 72.3633 -64.3066 L 67.5293 -60.1562 L 54.2969 -46.9238 C 53.418 -45.9961 52.9297 -44.9219 52.9297 -43.6035 C 52.9297 -41.3086 54.7852 -39.5508 57.3242 -39.5508 Z M 67.5781 -3.27148 C 57.8613 -3.125 46.2402 -9.13086 34.4238 -20.752 C 22.5586 -32.4219 16.5527 -44.4336 16.6504 -54.1992 C 16.6992 -58.1055 18.1641 -61.5723 20.8496 -63.8672 C 21.1914 -64.1602 21.5332 -64.4531 21.875 -64.6973 C 22.7539 -65.3809 23.7305 -65.7715 24.6582 -65.7715 C 25.7324 -65.7715 26.709 -65.332 27.4414 -64.1602 L 34.2285 -54.1016 C 35.2539 -52.5879 35.2051 -50.9277 33.7891 -49.5605 L 31.2012 -47.0215 C 27.7344 -43.75 28.0762 -40.2344 29.9316 -37.5 C 31.8848 -34.6191 35.9375 -29.9805 39.5996 -26.416 C 43.8477 -22.2656 48.8281 -17.7734 51.3672 -16.0156 C 54.1504 -14.1602 57.666 -13.8184 60.9375 -17.2852 L 63.4766 -19.873 C 64.7949 -21.2891 66.5039 -21.3379 68.0176 -20.3613 L 77.5879 -14.0625 C 78.7598 -13.2812 79.1992 -12.3047 79.1992 -11.2305 C 79.1992 -10.3027 78.8086 -9.375 78.125 -8.44727 C 77.832 -8.10547 77.5879 -7.76367 77.2949 -7.42188 C 75 -4.73633 71.5332 -3.32031 67.5781 -3.27148 Z"/>
  </g>
  <g id="Semibold-S" transform="matrix(1 0 0 1 1995.32 696)">
   <path d="M 66.8457 3.90625 C 73.7793 3.90625 78.418 1.85547 82.7148 -2.83203 C 83.0078 -3.125 83.3008 -3.4668 83.5938 -3.80859 C 85.791 -6.34766 86.9629 -9.13086 86.9629 -11.5723 C 86.9629 -14.6484 85.4004 -17.3828 81.7383 -19.9219 L 70.1172 -28.0273 C 66.2598 -30.6641 61.9141 -30.8105 58.7402 -27.5879 L 55.9082 -24.7559 C 54.7852 -23.6328 53.8086 -23.584 52.4902 -24.5605 C 50.3418 -26.123 46.6797 -29.4434 44.2871 -31.8359 C 41.9922 -34.1309 39.209 -37.2559 37.6953 -39.4043 C 36.7188 -40.6738 36.7676 -41.6992 37.8906 -42.7734 L 40.7227 -45.6055 C 43.9453 -48.7793 43.7988 -53.1738 41.1133 -56.9824 L 32.7148 -68.9453 C 30.3223 -72.3145 27.3926 -73.9746 24.3164 -73.9746 C 21.8262 -74.0234 19.1895 -72.9492 16.6504 -70.8008 C 16.3086 -70.5078 15.9668 -70.2148 15.6738 -69.9707 C 10.8887 -65.5273 8.78906 -61.0352 8.78906 -53.6133 C 8.78906 -41.9434 15.0879 -28.4668 28.3203 -15.332 C 41.5039 -2.29492 54.7363 3.90625 66.8457 3.90625 Z M 56.7871 -39.9902 C 57.8613 -39.9902 58.7891 -40.3809 59.5703 -41.1621 L 73.6816 -55.2734 L 78.4668 -60.5957 L 77.7832 -51.709 L 77.7832 -46.9238 C 77.7832 -44.873 79.3945 -43.2617 81.4941 -43.2129 C 83.6426 -43.1641 85.4004 -44.7754 85.4004 -46.875 L 85.4004 -67.7246 C 85.4004 -70.8008 83.7402 -72.5098 80.6641 -72.5098 L 59.668 -72.5098 C 57.5684 -72.5098 55.9082 -70.752 56.0059 -68.6035 C 56.0547 -66.4551 57.6172 -64.8926 59.7168 -64.8926 L 64.5996 -64.8926 L 73.6328 -65.5762 L 68.2129 -60.791 L 54.1016 -46.6797 C 53.2227 -45.8008 52.832 -44.8242 52.832 -43.7012 C 52.832 -41.6016 54.541 -39.9902 56.7871 -39.9902 Z M 66.7969 -3.41797 C 57.0312 -3.27148 45.0195 -9.81445 33.9355 -20.8008 C 22.8027 -31.7871 16.0645 -44.2383 16.2109 -54.0039 C 16.2598 -58.0078 17.7246 -61.4746 20.5078 -63.8672 C 20.8496 -64.1113 21.1426 -64.3555 21.4355 -64.5996 C 22.3633 -65.332 23.3887 -65.7715 24.3652 -65.7715 C 25.4395 -65.7715 26.416 -65.332 27.1484 -64.209 L 34.1309 -53.7598 C 35.0586 -52.3926 35.0098 -50.9277 33.7891 -49.707 L 30.8594 -46.8262 C 27.5879 -43.7012 27.9297 -40.2344 29.8828 -37.4512 C 31.9824 -34.5215 35.9863 -29.9805 39.3066 -26.7578 C 42.9199 -23.1934 47.8516 -18.75 50.5859 -16.748 C 53.3203 -14.7949 56.8359 -14.502 59.9609 -17.7246 L 62.8418 -20.6543 C 64.0137 -21.9238 65.5273 -21.9238 66.8457 -21.0449 L 77.0508 -14.3066 C 78.1738 -13.5742 78.5645 -12.5977 78.5645 -11.5723 C 78.5645 -10.5957 78.1738 -9.57031 77.4414 -8.64258 C 77.1973 -8.34961 76.9531 -8.00781 76.6602 -7.71484 C 74.3164 -4.93164 70.8008 -3.4668 66.7969 -3.41797 Z"/>
  </g>
  <g id="Medium-S" transform="matrix(1 0 0 1 1699.05 696)">
   <path d="M 66.2109 3.51562 C 73.1934 3.51562 77.6855 1.51367 81.7871 -3.02734 C 82.1289 -3.36914 82.4219 -3.75977 82.7148 -4.10156 C 84.9609 -6.68945 86.084 -9.32617 86.084 -11.7676 C 86.084 -14.7949 84.4727 -17.5293 80.8105 -20.0684 L 69.3359 -28.0273 C 65.625 -30.6152 61.3281 -30.8105 58.1543 -27.6367 L 55.2246 -24.707 C 54.1992 -23.6816 53.3691 -23.6328 52.2949 -24.4141 C 50.1465 -25.9277 46.2891 -29.3945 43.7988 -31.8848 C 41.3574 -34.3262 38.4277 -37.5977 36.9629 -39.7949 C 36.1816 -40.8203 36.1816 -41.6992 37.207 -42.7246 L 40.1367 -45.6055 C 43.3105 -48.7793 43.1641 -53.0762 40.5762 -56.8359 L 32.4219 -68.457 C 29.9316 -71.9727 27.0996 -73.6328 24.1211 -73.6328 C 21.6309 -73.6816 19.043 -72.6074 16.4551 -70.3613 C 16.1133 -70.0684 15.7715 -69.7754 15.4297 -69.4824 C 10.791 -65.2832 8.78906 -60.8398 8.78906 -53.6133 C 8.78906 -42.1875 15.2344 -28.6621 28.2227 -15.7715 C 41.1621 -2.92969 54.541 3.51562 66.2109 3.51562 Z M 56.3965 -40.332 C 57.373 -40.332 58.2031 -40.6738 58.9355 -41.4062 L 73.7793 -56.25 L 79.0039 -62.0117 L 78.2715 -52.1973 L 78.2715 -47.4121 C 78.2715 -45.5078 79.7363 -44.043 81.6895 -43.9453 C 83.6426 -43.8477 85.3027 -45.4102 85.3027 -47.3633 L 85.3027 -68.6035 C 85.3027 -71.3867 83.8867 -72.8516 81.1035 -72.8516 L 59.7656 -72.8516 C 57.8125 -72.8516 56.25 -71.2402 56.3477 -69.2383 C 56.3965 -67.2852 57.9102 -65.8691 59.8145 -65.8691 L 64.6973 -65.8691 L 74.6094 -66.5527 L 68.7012 -61.3281 L 53.9062 -46.4355 C 53.125 -45.6543 52.7344 -44.7754 52.7344 -43.75 C 52.7344 -41.7969 54.2969 -40.332 56.3965 -40.332 Z M 66.1621 -3.51562 C 56.4453 -3.32031 44.1406 -10.3516 33.5449 -20.8008 C 22.9492 -31.2988 15.6738 -44.0918 15.8691 -53.8574 C 15.9668 -57.9102 17.4316 -61.4258 20.2637 -63.8672 C 20.5566 -64.1113 20.8496 -64.3066 21.1426 -64.5508 C 22.0703 -65.332 23.1445 -65.7715 24.1211 -65.7715 C 25.1953 -65.7715 26.1719 -65.3809 26.9043 -64.2578 L 34.082 -53.4668 C 34.9121 -52.2461 34.9121 -50.9277 33.7402 -49.8047 L 30.5664 -46.6797 C 27.4902 -43.6523 27.7832 -40.1855 29.834 -37.4512 C 32.0801 -34.4238 36.0352 -29.9805 39.0137 -27.0508 C 42.2363 -23.9258 47.0703 -19.4824 50 -17.2852 C 52.7344 -15.2832 56.2012 -14.9902 59.1797 -18.0664 L 62.3535 -21.2402 C 63.4277 -22.3633 64.7949 -22.3633 66.0156 -21.5332 L 76.6113 -14.5508 C 77.7344 -13.8184 78.125 -12.8418 78.125 -11.7676 C 78.125 -10.791 77.6855 -9.76562 76.9043 -8.78906 C 76.6602 -8.49609 76.4648 -8.20312 76.1719 -7.91016 C 73.7793 -5.07812 70.2637 -3.61328 66.1621 -3.51562 Z"/>
  </g>
  <g id="Regular-S" transform="matrix(1 0 0 1 1402.87 696)">
   <path d="M 55.8594 -40.7715 C 56.7383 -40.7715 57.4707 -41.0645 58.1055 -41.748 L 73.8281 -57.4707 L 79.6875 -63.916 L 78.9551 -52.832 L 78.9551 -47.998 C 78.9551 -46.3379 80.2246 -45.0195 81.9336 -44.9219 C 83.6426 -44.8242 85.1562 -46.2402 85.1562 -47.998 L 85.1562 -69.8242 C 85.1562 -72.1191 84.0332 -73.291 81.7383 -73.291 L 59.9121 -73.291 C 58.1543 -73.291 56.7383 -71.8262 56.8359 -70.0195 C 56.8848 -68.3594 58.252 -67.1387 59.9121 -67.1387 L 64.7461 -67.1387 L 75.8789 -67.8223 L 69.3848 -61.9629 L 53.6621 -46.1914 C 52.9297 -45.5078 52.6367 -44.7266 52.6367 -43.7988 C 52.6367 -42.0898 54.0527 -40.7715 55.8594 -40.7715 Z M 65.332 2.97852 C 72.3633 2.97852 76.709 1.12305 80.6152 -3.32031 C 80.957 -3.71094 81.25 -4.10156 81.5918 -4.44336 C 83.8867 -7.08008 84.9609 -9.61914 84.9609 -12.0605 C 84.9609 -14.9902 83.252 -17.7246 79.541 -20.2637 L 68.3594 -28.0762 C 64.7461 -30.5664 60.5469 -30.7617 57.373 -27.6367 L 54.3457 -24.6094 C 53.4668 -23.7305 52.7832 -23.7305 52.0508 -24.2188 C 49.8535 -25.6348 45.752 -29.3457 43.1641 -31.9336 C 40.5762 -34.5215 37.4023 -38.0371 35.9375 -40.2832 C 35.4492 -41.0645 35.4492 -41.6992 36.3281 -42.5781 L 39.4043 -45.6543 C 42.5293 -48.7793 42.334 -53.0273 39.7949 -56.6406 L 32.0312 -67.7734 C 29.4434 -71.4844 26.709 -73.1934 23.7793 -73.2422 C 21.3867 -73.291 18.8477 -72.168 16.2109 -69.873 C 15.8203 -69.5312 15.4785 -69.1895 15.0879 -68.8477 C 10.6445 -64.9902 8.78906 -60.5957 8.78906 -53.6133 C 8.78906 -42.5781 15.4297 -28.9551 28.0762 -16.3086 C 40.6738 -3.71094 54.2969 2.97852 65.332 2.97852 Z M 65.3809 -3.66211 C 55.6152 -3.4668 42.9199 -11.0352 33.1055 -20.8496 C 23.1934 -30.6641 15.1855 -43.8965 15.4297 -53.6621 C 15.5273 -57.8125 16.9922 -61.3281 19.9219 -63.8184 C 20.2148 -64.0625 20.459 -64.2578 20.752 -64.502 C 21.7285 -65.2832 22.8516 -65.7715 23.8281 -65.7715 C 24.9023 -65.7715 25.8789 -65.3809 26.5625 -64.3066 L 33.9844 -53.125 C 34.7168 -52.0508 34.7168 -50.9277 33.7402 -50 L 30.2246 -46.4844 C 27.3926 -43.6035 27.6367 -40.1855 29.7852 -37.4512 C 32.1777 -34.3262 36.084 -29.9805 38.7207 -27.4414 C 41.3086 -24.8535 46.0938 -20.459 49.2188 -18.0176 C 51.9531 -15.918 55.3711 -15.625 58.2031 -18.5059 L 61.7188 -22.0215 C 62.6953 -22.9492 63.8184 -22.9492 64.8926 -22.2168 L 76.0254 -14.7949 C 77.1484 -14.1113 77.4902 -13.1836 77.4902 -12.1094 C 77.4902 -11.084 77.0508 -9.96094 76.2207 -8.98438 C 76.0254 -8.69141 75.8301 -8.44727 75.5859 -8.20312 C 73.0957 -5.22461 69.5312 -3.75977 65.3809 -3.66211 Z"/>
  </g>
  <g id="Light-S" transform="matrix(1 0 0 1 1107.23 696)">
   <path d="M 53.9551 -40.8203 C 54.6387 -40.8203 55.2246 -41.0645 55.7129 -41.6016 L 72.8027 -58.7402 L 78.6621 -64.9902 L 78.125 -53.7109 L 78.125 -47.2656 C 78.125 -45.9473 79.1504 -44.9219 80.4688 -44.873 C 81.8359 -44.7754 83.0078 -45.8984 83.0078 -47.2656 L 83.0078 -69.7266 C 83.0078 -71.4844 82.1289 -72.4121 80.3223 -72.4121 L 57.7637 -72.4121 C 56.3477 -72.4121 55.2246 -71.2402 55.3223 -69.873 C 55.3711 -68.5547 56.4453 -67.5293 57.7637 -67.5293 L 64.3066 -67.5293 L 75.6836 -68.0664 L 69.3359 -62.207 L 52.2461 -45.1172 C 51.6602 -44.5312 51.416 -43.9453 51.416 -43.2129 C 51.416 -41.8457 52.4902 -40.8203 53.9551 -40.8203 Z M 63.6719 1.70898 C 70.0684 1.70898 74.4629 -0.0488281 78.3691 -4.29688 C 78.6133 -4.58984 78.8574 -4.88281 79.1016 -5.17578 C 81.3965 -7.66602 82.4707 -10.2051 82.4707 -12.5488 C 82.4707 -15.1855 81.0059 -17.627 77.832 -19.7754 L 66.748 -27.4902 C 63.4766 -29.7363 59.5703 -30.0781 56.2988 -26.8555 L 53.418 -24.0234 C 52.5879 -23.1445 51.7578 -23.0469 50.7812 -23.584 C 48.8281 -24.8047 44.6289 -28.3691 41.6016 -31.3965 C 38.2812 -34.668 35.5957 -37.7441 34.082 -40.2832 C 33.5449 -41.2598 33.6426 -42.0898 34.5215 -42.9199 L 37.3535 -45.8008 C 40.5762 -49.0723 40.2344 -52.9785 37.9883 -56.25 L 30.2734 -67.334 C 28.125 -70.5078 25.6836 -71.9238 23.0469 -71.9727 C 20.7031 -72.0215 18.1641 -70.8984 15.6738 -68.6035 C 15.3809 -68.3594 15.0879 -68.1152 14.7949 -67.8711 C 10.5957 -64.0137 8.78906 -59.5703 8.78906 -53.2715 C 8.78906 -42.4316 15.625 -29.2969 27.7344 -17.2363 C 39.7461 -5.22461 52.832 1.70898 63.6719 1.70898 Z M 63.6719 -3.51562 C 53.9551 -3.36914 41.6016 -10.791 31.5918 -20.752 C 21.582 -30.7617 13.8672 -43.5059 14.0137 -53.2715 C 14.0625 -57.5195 15.5273 -61.1816 18.6035 -63.916 C 18.7988 -64.1113 18.9941 -64.2578 19.2383 -64.4531 C 20.5078 -65.625 21.875 -66.2109 23.0469 -66.2109 C 24.2188 -66.2109 25.1953 -65.7227 25.9766 -64.5508 L 33.3984 -53.418 C 34.2773 -52.1484 34.4238 -50.6836 33.0078 -49.2676 L 29.7363 -46.0449 C 27.2949 -43.6035 27.4414 -40.5273 29.1992 -38.0859 C 31.2012 -35.2539 34.8633 -31.0547 38.0371 -27.8809 C 41.2598 -24.6582 45.752 -20.7031 48.584 -18.7012 C 51.0254 -16.9434 54.1016 -16.7969 56.543 -19.2383 L 59.7656 -22.5098 C 61.1816 -23.9258 62.6465 -23.7793 63.916 -22.9004 L 75.0488 -15.4785 C 76.2207 -14.6973 76.709 -13.7207 76.709 -12.5488 C 76.709 -11.3281 76.123 -10.0098 74.9512 -8.74023 C 74.7559 -8.49609 74.6094 -8.30078 74.4141 -8.10547 C 71.6797 -5.0293 67.9688 -3.56445 63.6719 -3.51562 Z"/>
  </g>
  <g id="Thin-S" transform="matrix(1 0 0 1 811.964 696)">
   <path d="M 51.416 -40.918 C 51.8066 -40.918 52.2461 -41.1133 52.5391 -41.4062 L 71.4355 -60.3516 L 77.3438 -66.4551 L 77.0508 -54.834 L 77.0508 -46.3379 C 77.0508 -45.459 77.7344 -44.8242 78.5645 -44.7754 C 79.3945 -44.7754 80.127 -45.459 80.127 -46.3379 L 80.127 -69.6289 C 80.127 -70.7031 79.5898 -71.2402 78.4668 -71.2402 L 54.8828 -71.2402 C 54.0039 -71.2402 53.2715 -70.5078 53.3203 -69.6289 C 53.3203 -68.7988 54.0527 -68.1152 54.8828 -68.1152 L 63.7695 -68.1152 L 75.3906 -68.4082 L 69.2383 -62.5488 L 50.3418 -43.6523 C 49.9512 -43.2617 49.8047 -42.8711 49.8047 -42.3828 C 49.8047 -41.5527 50.4883 -40.918 51.416 -40.918 Z M 61.4746 0.0488281 C 66.9922 0.0488281 71.5332 -1.5625 75.3906 -5.56641 C 75.5859 -5.76172 75.7324 -5.9082 75.8301 -6.05469 C 78.125 -8.44727 79.1992 -10.9375 79.1992 -13.2324 C 79.1992 -15.4297 78.0273 -17.5293 75.6348 -19.1406 L 64.5996 -26.709 C 61.7188 -28.6621 58.3008 -29.1016 54.8828 -25.7812 L 52.2461 -23.1934 C 51.416 -22.3633 50.3906 -22.168 49.1699 -22.8027 C 47.4609 -23.7305 43.1641 -27.0508 39.4531 -30.7129 C 35.3027 -34.8633 33.2031 -37.3535 31.6406 -40.332 C 31.0059 -41.5039 31.2012 -42.5781 32.0801 -43.4082 L 34.6191 -46.0449 C 37.9883 -49.4629 37.5 -52.8809 35.5469 -55.7617 L 28.0273 -66.7969 C 26.3672 -69.1895 24.3164 -70.3125 22.1191 -70.3613 C 19.8242 -70.4102 17.2852 -69.2383 14.9414 -66.9922 C 14.7461 -66.8457 14.5996 -66.6992 14.4531 -66.5527 C 10.498 -62.7441 8.78906 -58.252 8.78906 -52.7832 C 8.78906 -42.2363 15.918 -29.7363 27.2949 -18.4082 C 38.5742 -7.17773 50.9766 0.0488281 61.4746 0.0488281 Z M 61.4746 -3.32031 C 51.7578 -3.27148 39.8438 -10.498 29.6387 -20.6543 C 19.4336 -30.8594 12.1094 -43.0176 12.1582 -52.7832 C 12.207 -57.0801 13.6719 -60.9863 16.8457 -64.0137 C 16.9922 -64.1602 17.1387 -64.3066 17.2852 -64.4531 C 18.9453 -66.0156 20.6055 -66.7969 21.9727 -66.7969 C 23.2422 -66.7969 24.3164 -66.1621 25.2441 -64.8438 L 32.666 -53.8574 C 33.7402 -52.2461 33.9844 -50.3418 32.0312 -48.3887 L 29.1016 -45.5078 C 27.1973 -43.6035 27.1484 -40.918 28.3691 -38.8672 C 29.834 -36.4746 33.2031 -32.4707 37.1582 -28.418 C 41.2109 -24.3652 45.3613 -20.9961 47.7539 -19.5312 C 49.8047 -18.2617 52.4414 -18.3105 54.3457 -20.2637 L 57.2266 -23.1445 C 59.1797 -25.1465 61.084 -24.9023 62.6953 -23.7793 L 73.6816 -16.3574 C 75.0488 -15.4785 75.6836 -14.4043 75.6836 -13.0859 C 75.6836 -11.6699 74.9023 -10.0586 73.2422 -8.39844 C 73.0957 -8.25195 73.0469 -8.1543 72.9004 -8.00781 C 69.7754 -4.78516 65.8691 -3.32031 61.4746 -3.32031 Z"/>
  </g>
  <g id="Ultralight-S" transform="matrix(1 0 0 1 515.986 696)">
   <path d="M 50.0977 -40.9668 C 50.3906 -40.9668 50.6836 -41.1133 50.9277 -41.3086 L 70.7031 -61.1816 L 76.6113 -67.1875 L 76.5137 -55.4199 L 76.5137 -45.8008 C 76.5137 -45.2148 76.9531 -44.7266 77.5879 -44.7266 C 78.1738 -44.7266 78.6621 -45.2148 78.6621 -45.8008 L 78.6621 -69.5801 C 78.6621 -70.2637 78.2715 -70.6543 77.4902 -70.6543 L 53.418 -70.6543 C 52.832 -70.6543 52.2949 -70.1172 52.2949 -69.5312 C 52.2949 -68.8965 52.832 -68.4082 53.418 -68.4082 L 63.4277 -68.4082 L 75.2441 -68.6035 L 69.1895 -62.6953 L 49.4141 -42.9199 C 49.0723 -42.5781 48.9746 -42.334 48.9746 -41.9922 C 48.9746 -41.4062 49.4629 -40.9668 50.0977 -40.9668 Z M 60.3027 -0.78125 C 65.4297 -0.78125 70.0195 -2.34375 73.877 -6.25 C 73.9746 -6.34766 74.1211 -6.44531 74.1699 -6.54297 C 76.4648 -8.83789 77.5391 -11.3281 77.5391 -13.5742 C 77.5391 -15.5762 76.5137 -17.4316 74.4629 -18.8477 L 63.4766 -26.3184 C 60.8398 -28.125 57.666 -28.6133 54.1504 -25.2441 L 51.6602 -22.8027 C 50.8301 -21.9727 49.6582 -21.6797 48.3398 -22.3633 C 46.7285 -23.1934 42.4316 -26.3672 38.3789 -30.3711 C 33.7402 -34.9609 31.9824 -37.1582 30.3711 -40.332 C 29.6875 -41.6504 29.9805 -42.8223 30.8105 -43.6523 L 33.252 -46.1426 C 36.6211 -49.6582 36.1328 -52.832 34.3262 -55.4688 L 26.8555 -66.4551 C 25.4395 -68.5059 23.584 -69.4824 21.582 -69.5312 C 19.3359 -69.5801 16.7969 -68.4082 14.5508 -66.1621 C 14.4043 -66.0645 14.3555 -65.9668 14.2578 -65.8691 C 10.4492 -62.1094 8.78906 -57.5195 8.78906 -52.5391 C 8.78906 -42.1387 16.0645 -29.9805 27.0508 -19.043 C 37.9395 -8.20312 50 -0.78125 60.3027 -0.78125 Z M 60.3027 -3.22266 C 50.5859 -3.17383 38.916 -10.3516 28.6621 -20.6055 C 18.3105 -30.957 11.1816 -42.7246 11.1816 -52.4902 C 11.2305 -56.8848 12.6953 -60.8887 15.918 -64.1113 C 16.0156 -64.209 16.1621 -64.3066 16.2598 -64.4043 C 18.1152 -66.2598 19.9219 -67.1387 21.4355 -67.1387 C 22.7539 -67.1387 23.877 -66.4062 24.8535 -64.9902 L 32.2754 -54.0527 C 33.4473 -52.2949 33.7891 -50.1465 31.4941 -47.9004 L 28.8086 -45.2148 C 27.0996 -43.6035 27.002 -41.1621 27.9785 -39.3066 C 29.1504 -37.1094 32.3242 -33.252 36.7188 -28.7598 C 41.1621 -24.2188 45.1172 -21.1426 47.3145 -19.9707 C 49.1699 -18.9941 51.6113 -19.0918 53.2227 -20.8008 L 55.9082 -23.4863 C 58.1543 -25.7812 60.3027 -25.4395 62.0605 -24.2676 L 72.998 -16.8457 C 74.4141 -15.8691 75.1465 -14.7461 75.1465 -13.4277 C 75.1465 -11.8652 74.2676 -10.1074 72.3633 -8.20312 C 72.2656 -8.10547 72.2168 -8.00781 72.1191 -7.91016 C 68.8477 -4.63867 64.7949 -3.22266 60.3027 -3.22266 Z"/>
  </g>
 </g>
</svg>
